<svg width="174" height="114" viewBox="0 0 174 114" fill="none" xmlns="http://www.w3.org/2000/svg">
<g clip-path="url(#clip0_35_1087)">
<path d="M14.9732 75.7829C20.4814 73.4999 23.0852 67.2095 20.7889 61.733C18.4927 56.2565 12.1661 53.6677 6.65794 55.9507C1.1498 58.2337 -1.45399 64.5241 0.842212 70.0006C3.13841 75.4771 9.46508 78.0659 14.9732 75.7829Z" fill="#DD242E"/>
<path d="M168.578 31.4625C174.722 26.6398 175.771 17.7782 170.92 11.6694C166.07 5.56071 157.157 4.51814 151.013 9.3408C144.869 14.1635 143.82 23.0251 148.671 29.1339C153.521 35.2426 162.434 36.2852 168.578 31.4625Z" fill="#DD242E"/>
<path d="M104.247 93.514C104.313 93.1008 104.182 92.7094 103.897 92.4049L92.3483 81.205C91.2327 80.1394 90.839 78.5518 91.3202 77.073C91.8014 75.5941 93.0482 74.5503 94.5793 74.3328L110.547 72.0276C110.962 71.9623 111.312 71.7231 111.487 71.3534L118.64 56.9566C118.705 56.8261 118.793 56.6956 118.858 56.5869V12.6353C118.858 8.24236 115.271 4.67578 110.853 4.67578H49.5646C45.1463 4.67578 41.5591 8.24236 41.5591 12.6353V87.5552C41.5591 89.8169 42.8933 91.796 44.8619 92.9268C48.2741 94.8841 49.3459 99.6033 54.4423 99.6033C60.873 99.6033 60.873 92.0787 67.3255 92.0787C73.7781 92.0787 73.7781 99.6033 80.2087 99.6033C86.6394 99.6033 86.6394 92.0787 93.092 92.0787C98.4727 92.0787 99.3695 97.3416 103.307 99.0596L104.269 93.514H104.247Z" fill="#FFFBF8"/>
<path d="M128.023 62.9153L134.651 76.2682C135.001 76.9859 135.701 77.4861 136.51 77.5948L151.318 79.7261C153.33 80.0088 154.14 82.488 152.674 83.9016L141.956 94.2968C141.388 94.8623 141.103 95.6669 141.256 96.4498L143.794 111.108C144.144 113.108 142.022 114.631 140.228 113.674L126.973 106.758C126.251 106.388 125.398 106.388 124.677 106.758L111.422 113.674C109.628 114.609 107.506 113.087 107.856 111.108L110.394 96.4498C110.525 95.6669 110.262 94.8405 109.694 94.2968L98.9758 83.9016C97.5103 82.488 98.3196 80.0305 100.332 79.7261L115.14 77.5948C115.949 77.4861 116.627 76.9859 116.999 76.2682L123.627 62.9153C124.523 61.1103 127.126 61.1103 128.023 62.9153Z" fill="#DD242E"/>
<path d="M99.304 10.1995H54.9017C52.8723 10.1995 51.2271 11.8352 51.2271 13.853V19.6378C51.2271 21.6557 52.8723 23.2914 54.9017 23.2914H99.304C101.333 23.2914 102.979 21.6557 102.979 19.6378V13.853C102.979 11.8352 101.333 10.1995 99.304 10.1995Z" fill="white"/>
<path d="M102.41 97.5154C98.5819 97.5154 96.6571 95.2755 94.9729 93.2965C93.4637 91.5132 92.1513 89.9908 89.5265 89.9908C86.9017 89.9908 85.5894 91.5349 84.0583 93.2965C82.374 95.2755 80.4492 97.5154 76.6433 97.5154C72.8374 97.5154 70.9126 95.2755 69.2283 93.2965C67.6972 91.5132 66.3848 89.9908 63.7601 89.9908C61.1353 89.9908 59.8229 91.5349 58.3137 93.2965C56.6295 95.2755 54.7046 97.5154 50.8987 97.5154C47.0928 97.5154 45.1461 95.2755 43.4619 93.2965C42.5651 92.2526 41.7339 91.2739 40.6621 90.665C38.1905 89.2514 36.7031 86.8157 36.7031 84.1625V9.2644C36.7031 4.15376 40.8809 0 46.021 0H107.309C112.449 0 116.627 4.15376 116.627 9.2644V58.8703C116.627 59.5879 116.037 60.1534 115.337 60.1534C114.637 60.1534 114.046 59.5662 114.046 58.8703V9.2644C114.046 5.58909 111.028 2.58794 107.331 2.58794H45.9992C42.3026 2.58794 39.2841 5.58909 39.2841 9.2644V84.1625C39.2841 85.8806 40.2684 87.4681 41.9308 88.425C43.3744 89.2514 44.4024 90.4693 45.4086 91.6219C46.9397 93.4052 48.2521 94.9275 50.8769 94.9275C53.5016 94.9275 54.814 93.3834 56.3232 91.6219C58.0075 89.6429 59.9323 87.4029 63.7382 87.4029C67.5441 87.4029 69.4908 89.6429 71.175 91.6219C72.6843 93.4052 73.9967 94.9275 76.6214 94.9275C79.2462 94.9275 80.5586 93.3834 82.0678 91.6219C83.752 89.6429 85.6768 87.4029 89.5046 87.4029C93.3324 87.4029 95.2354 89.6429 96.9196 91.6219C98.4507 93.4052 99.7631 94.9275 102.388 94.9275C103.11 94.9275 103.678 95.5147 103.678 96.2106C103.678 96.9065 103.088 97.4937 102.388 97.4937L102.41 97.5154Z" fill="#36404A"/>
<path d="M137.8 111.89C137.21 111.89 136.597 111.738 136.051 111.455L122.796 104.54C122.467 104.366 122.052 104.366 121.724 104.54L108.469 111.455C107.2 112.13 105.691 112.021 104.51 111.173C103.35 110.325 102.782 108.933 103.022 107.519L105.56 92.8396C105.625 92.4699 105.494 92.0785 105.231 91.8175L94.5137 81.4222C93.4857 80.4219 93.1138 78.9648 93.5732 77.5947C94.0106 76.2246 95.1699 75.2677 96.6135 75.0502L111.422 72.919C111.793 72.8538 112.121 72.6363 112.296 72.2883L118.924 58.9354C119.558 57.6523 120.849 56.8477 122.292 56.8477C123.736 56.8477 125.027 57.6523 125.661 58.9354L132.288 72.2883C132.463 72.6363 132.792 72.8538 133.163 72.919L147.971 75.0502C149.393 75.246 150.552 76.2246 151.012 77.5947C151.449 78.9648 151.099 80.4219 150.071 81.4222L139.353 91.8175C139.069 92.0785 138.96 92.4699 139.025 92.8396L141.563 107.497C141.803 108.911 141.235 110.303 140.075 111.151C139.419 111.629 138.653 111.869 137.866 111.869L137.8 111.89ZM122.271 59.4573C122.052 59.4573 121.527 59.5226 121.221 60.1098L114.593 73.4627C114.046 74.5718 112.996 75.333 111.772 75.507L96.9635 77.6382C96.3073 77.7252 96.0886 78.2689 96.0229 78.4211C95.9573 78.6168 95.8479 79.1605 96.3073 79.5955L107.025 89.9907C107.9 90.8389 108.316 92.0785 108.097 93.2963L105.56 107.954C105.45 108.607 105.888 108.976 106.019 109.085C106.194 109.215 106.675 109.476 107.244 109.172L120.499 102.256C121.593 101.691 122.905 101.691 123.999 102.256L137.254 109.172C137.844 109.476 138.347 109.172 138.479 109.085C138.653 108.954 139.047 108.585 138.938 107.954L136.401 93.2963C136.182 92.0785 136.597 90.8389 137.472 89.9907L148.19 79.5955C148.649 79.1388 148.54 78.6168 148.474 78.4211C148.431 78.2689 148.212 77.7252 147.534 77.6382L132.726 75.507C131.501 75.333 130.451 74.5718 129.904 73.4627L123.277 60.1098C122.971 59.5226 122.402 59.4573 122.227 59.4573H122.271Z" fill="#36404A"/>
<path d="M99.304 24.5747H54.9236C52.1894 24.5747 49.9365 22.3564 49.9365 19.6163V13.8532C49.9365 11.1348 52.1676 8.89478 54.9236 8.89478H99.304C102.038 8.89478 104.291 11.113 104.291 13.8532V19.6163C104.291 22.3347 102.06 24.5747 99.304 24.5747ZM54.9236 11.4827C53.6112 11.4827 52.5394 12.5483 52.5394 13.8532V19.6163C52.5394 20.9211 53.6112 21.9867 54.9236 21.9867H99.304C100.616 21.9867 101.688 20.9211 101.688 19.6163V13.8532C101.688 12.5483 100.616 11.4827 99.304 11.4827H54.9236Z" fill="#36404A"/>
<path d="M85.305 34.5567H47.0054C46.2835 34.5567 45.7148 33.9695 45.7148 33.2736C45.7148 32.5777 46.3054 31.9905 47.0054 31.9905H85.305C86.0268 31.9905 86.5955 32.5777 86.5955 33.2736C86.5955 33.9695 86.005 34.5567 85.305 34.5567Z" fill="#36404A"/>
<path d="M69.7533 39.8631H47.0054C46.2835 39.8631 45.7148 39.2759 45.7148 38.58C45.7148 37.8841 46.3054 37.2969 47.0054 37.2969H69.7533C70.4751 37.2969 71.0438 37.8841 71.0438 38.58C71.0438 39.2759 70.4532 39.8631 69.7533 39.8631Z" fill="#36404A"/>
<path d="M88.4765 16.4192H65.7285C65.0067 16.4192 64.438 15.832 64.438 15.1361C64.438 14.4402 65.0286 13.853 65.7285 13.853H88.4765C89.1983 13.853 89.767 14.4402 89.767 15.1361C89.767 15.832 89.1764 16.4192 88.4765 16.4192Z" fill="#36404A"/>
<path d="M108.95 34.5567H98.7348C98.013 34.5567 97.4443 33.9695 97.4443 33.2736C97.4443 32.5777 98.0349 31.9905 98.7348 31.9905H108.95C109.671 31.9905 110.24 32.5777 110.24 33.2736C110.24 33.9695 109.649 34.5567 108.95 34.5567Z" fill="#36404A"/>
<path d="M85.305 47.3877H47.0054C46.2835 47.3877 45.7148 46.8005 45.7148 46.1046C45.7148 45.4087 46.3054 44.8215 47.0054 44.8215H85.305C86.0268 44.8215 86.5955 45.4087 86.5955 46.1046C86.5955 46.8005 86.005 47.3877 85.305 47.3877Z" fill="#36404A"/>
<path d="M69.7533 52.7159H47.0054C46.2835 52.7159 45.7148 52.1287 45.7148 51.4328C45.7148 50.7368 46.3054 50.1497 47.0054 50.1497H69.7533C70.4751 50.1497 71.0438 50.7368 71.0438 51.4328C71.0438 52.1287 70.4532 52.7159 69.7533 52.7159Z" fill="#36404A"/>
<path d="M108.95 47.3877H98.7348C98.013 47.3877 97.4443 46.8005 97.4443 46.1046C97.4443 45.4087 98.0349 44.8215 98.7348 44.8215H108.95C109.671 44.8215 110.24 45.4087 110.24 46.1046C110.24 46.8005 109.649 47.3877 108.95 47.3877Z" fill="#36404A"/>
<path d="M85.305 60.2403H47.0054C46.2835 60.2403 45.7148 59.6531 45.7148 58.9572C45.7148 58.2613 46.3054 57.6741 47.0054 57.6741H85.305C86.0268 57.6741 86.5955 58.2613 86.5955 58.9572C86.5955 59.6531 86.005 60.2403 85.305 60.2403Z" fill="#36404A"/>
<path d="M69.7533 65.5467H47.0054C46.2835 65.5467 45.7148 64.9595 45.7148 64.2636C45.7148 63.5676 46.3054 62.9805 47.0054 62.9805H69.7533C70.4751 62.9805 71.0438 63.5676 71.0438 64.2636C71.0438 64.9595 70.4532 65.5467 69.7533 65.5467Z" fill="#36404A"/>
<path d="M90.773 81.792H62.4912C61.7694 81.792 61.2007 81.2048 61.2007 80.5089C61.2007 79.813 61.7913 79.2258 62.4912 79.2258H90.773C91.4948 79.2258 92.0635 79.813 92.0635 80.5089C92.0635 81.2048 91.473 81.792 90.773 81.792Z" fill="#36404A"/>
<path d="M108.95 60.2403H98.7348C98.013 60.2403 97.4443 59.6531 97.4443 58.9572C97.4443 58.2613 98.0349 57.6741 98.7348 57.6741H108.95C109.671 57.6741 110.24 58.2613 110.24 58.9572C110.24 59.6531 109.649 60.2403 108.95 60.2403Z" fill="#36404A"/>
<path d="M146.199 4.17545C145.281 5.08884 145.456 6.69815 146.549 7.78552C147.643 8.87289 149.283 9.04687 150.18 8.13348C151.099 7.22009 150.924 5.61078 149.83 4.52341C148.737 3.43604 147.096 3.26206 146.199 4.17545ZM156.502 7.78552C157.595 6.69815 157.77 5.06709 156.852 4.17545C155.933 3.28381 154.314 3.43604 153.221 4.52341C152.127 5.61078 151.952 7.24184 152.871 8.13348C153.789 9.02513 155.408 8.87289 156.502 7.78552ZM146.549 11.2869C145.456 12.3742 145.281 14.0053 146.199 14.8969C147.118 15.8103 148.737 15.6363 149.83 14.549C150.924 13.4616 151.099 11.8305 150.18 10.9389C149.262 10.0255 147.643 10.1995 146.549 11.2869ZM152.871 10.9389C151.952 11.8523 152.127 13.4616 153.221 14.549C154.314 15.6363 155.955 15.8103 156.852 14.8969C157.77 13.9835 157.595 12.3742 156.502 11.2869C155.408 10.1995 153.767 10.0255 152.871 10.9389Z" fill="#36404A"/>
<path d="M16.1859 78.8126C12.7299 78.8126 9.93018 76.0289 9.93018 72.5928C9.93018 69.1567 12.7299 66.373 16.1859 66.373C19.6418 66.373 22.4416 69.1567 22.4416 72.5928C22.4416 76.0289 19.6418 78.8126 16.1859 78.8126ZM16.1859 68.6783C14.0204 68.6783 12.2487 70.4398 12.2487 72.5928C12.2487 74.7458 14.0204 76.5073 16.1859 76.5073C18.3513 76.5073 20.123 74.7458 20.123 72.5928C20.123 70.4398 18.3513 68.6783 16.1859 68.6783Z" fill="#36404A"/>
</g>
<defs>
<clipPath id="clip0_35_1087">
<rect width="174" height="114" fill="white"/>
</clipPath>
</defs>
</svg>
