<svg xmlns="http://www.w3.org/2000/svg" xmlns:xlink="http://www.w3.org/1999/xlink" width="15" height="22" viewBox="0 0 15 22">
    <defs>
        <path id="q0abgy0o5a" d="M0 0.052L13.185 0.052 13.185 18.112 0 18.112z"/>
        <path id="x4nblloiqc" d="M0 0.2L13.185 0.2 13.185 5.562 0 5.562z"/>
    </defs>
    <g fill="none" fill-rule="evenodd">
        <path fill="#FFF" d="M6.593 3.944c1.655 0 2.996 1.341 2.996 2.996S8.248 9.937 6.593 9.937 3.596 8.595 3.596 6.94c0-1.655 1.342-2.996 2.997-2.996" transform="translate(.5)"/>
        <g transform="translate(.5) translate(0 .296)">
            <mask id="20mg4s9l4b" fill="#fff">
                <use xlink:href="#q0abgy0o5a"/>
            </mask>
            <path fill="#FFF" d="M6.593 10.84c-2.313 0-4.196-1.882-4.196-4.195 0-2.313 1.883-4.196 4.196-4.196 2.313 0 4.195 1.883 4.195 4.196 0 2.313-1.882 4.195-4.195 4.195m0-10.788C3.352.052 0 2.518 0 6.645c0 3.77 5.882 10.95 6.132 11.252.114.136.283.215.46.215.179 0 .347-.08.461-.215.25-.301 6.132-7.483 6.132-11.252 0-3.635-2.957-6.593-6.592-6.593" mask="url(#20mg4s9l4b)"/>
        </g>
        <g transform="translate(.5) translate(0 15.243)">
            <mask id="vchwswt3vd" fill="#fff">
                <use xlink:href="#x4nblloiqc"/>
            </mask>
            <path fill="#FFF" d="M10.632.2C9.476 1.873 8.396 3.21 7.975 3.715c-.345.413-.849.648-1.383.648-.533 0-1.036-.235-1.38-.645C4.792 3.211 3.71 1.874 2.554.2 1.002.748 0 1.602 0 2.565 0 4.22 2.952 5.562 6.592 5.562c3.642 0 6.593-1.342 6.593-2.997 0-.962-1.002-1.817-2.553-2.365" mask="url(#vchwswt3vd)"/>
        </g>
    </g>
</svg>
