<svg xmlns="http://www.w3.org/2000/svg" width="29" height="14" viewBox="0 0 29 14">
    <g fill-rule="evenodd">
        <path d="M4.468 7.223c-.017 0-.042 0-.063-.03-.395 0-.72-.323-.723-.722 0-.396.323-.72.723-.724.395 0 .719.324.723.724.017.395-.265.735-.66.752m-.055-2.661c-1.055.004-1.909.858-1.909 1.909 0 1.05.858 1.908 1.91 1.908 1.05 0 1.904-.853 1.908-1.908-.004-1.056-.858-1.91-1.909-1.91" transform="translate(0 .25)"/>
        <path d="M27.65 10.822H1.306V1.968h6.651v3.019c-.008.327.257.6.585.6.328.01.601-.256.601-.584v-.016l-.004-3.015h2.194v4.709c0 .328.27.597.597.588.328 0 .593-.264.593-.592v-4.71h2.195l.004 3.015c0 .328.265.593.593.593.328 0 .593-.265.593-.593l-.004-3.014h2.194v4.709c0 .328.265.592.593.592.328 0 .593-.264.593-.592v-4.71h2.194v3.02c0 .327.261.597.589.597.328 0 .597-.261.597-.59v-.007l.025-3.02h2.195v4.71c0 .328.265.592.593.592.328 0 .592-.264.592-.592v-4.71h1.581v8.855zM28.243.778H.713c-.327 0-.592.265-.592.593v10.048c0 .328.265.593.592.593h27.53c.328 0 .593-.265.593-.593V1.371c0-.328-.265-.593-.593-.593z" transform="translate(0 .25)"/>
    </g>
</svg>
