<svg xmlns="http://www.w3.org/2000/svg" width="20" height="22" viewBox="0 0 20 22">
    <g fill="#FFF" fill-rule="evenodd">
        <path d="M9.32 7.567l-.699.583V5.46h1.74v2.69l-.698-.583c-.05-.043-.11-.065-.172-.065-.06 0-.121.022-.172.065" transform="translate(.5 .733)"/>
        <path d="M15.422 5.73v9.673c0 .146-.122.268-.269.268H3.83c-.147 0-.269-.122-.269-.268V5.73c0-.147.122-.27.27-.27h4.254v3.267c0 .107.06.2.154.244.096.046.208.032.286-.036l.967-.813.967.813c.05.04.111.06.172.06.04 0 .08-.007.115-.024.096-.043.154-.137.154-.244V5.461h4.254c.147 0 .27.122.27.269" transform="translate(.5 .733)"/>
        <path d="M8.152 2.404c.06.042.096.111.096.186 0 .072-.036.143-.096.185L5.22 4.781c-.066.045-.156.05-.23.012-.072-.039-.12-.113-.12-.197v-.508c-1.976.026-3.72 1.36-4.254 3.264-.027.096-.114.164-.215.164-.099 0-.189-.068-.216-.164C.063 6.915 0 6.464 0 6.012 0 3.31 2.18 1.11 4.87 1.078V.584c0-.084.048-.162.12-.2.074-.04.164-.033.23.014l2.932 2.006zM18.982 15.12c0 2.702-2.179 4.902-4.87 4.935v.497c0 .08-.044.158-.119.197-.032.018-.068.027-.105.027-.044 0-.09-.015-.125-.042l-2.933-2.006c-.06-.042-.095-.11-.095-.185 0-.072.035-.144.095-.186l2.933-2.006c.069-.045.155-.05.23-.012.075.04.12.114.12.198v.508c1.976-.027 3.719-1.36 4.254-3.265.026-.095.113-.164.215-.164.099 0 .188.069.215.164.123.437.185.888.185 1.34" transform="translate(.5 .733)"/>
    </g>
</svg>
