<svg xmlns="http://www.w3.org/2000/svg" xmlns:xlink="http://www.w3.org/1999/xlink" width="17" height="18" viewBox="0 0 17 18">
    <defs>
        <path id="zx1647z1va" d="M0 0.254L15.927 0.254 15.927 15.185 0 15.185z"/>
    </defs>
    <g fill="none" fill-rule="evenodd">
        <path fill="#FFF" d="M9.275 6.656l.68-.646c.102-.099.047-.273-.095-.293l-.953-.136c-.15-.021-.282-.115-.35-.251l-.441-.871c-.064-.125-.242-.125-.305 0l-.44.87c-.07.137-.2.231-.351.252l-.954.136c-.141.02-.197.194-.094.293l.68.646c.113.108.165.265.138.419l-.164.931c-.024.14.12.246.246.182l.878-.45c.134-.069.293-.069.427 0l.877.45c.126.064.271-.043.246-.182l-.163-.931c-.027-.154.025-.311.138-.42" transform="translate(.5 .493)"/>
        <g transform="translate(.5 .493) translate(0 .07)">
            <mask id="qab4czesqb" fill="#fff">
                <use xlink:href="#zx1647z1va"/>
            </mask>
            <path fill="#FFF" d="M11.551 5.708L10.1 7.09l.342 1.948c.066.379-.331.674-.673.496l-1.806-.927-1.805.927c-.343.176-.74-.116-.673-.496l.342-1.948-1.451-1.382c-.283-.269-.13-.745.255-.8l2.016-.286.9-1.78c.159-.314.674-.314.833 0l.9 1.78 2.015.286c.385.055.539.531.256.8M14.527.254H1.4C.628.254 0 .88 0 1.654v9.331c0 .772.628 1.4 1.4 1.4h1.43v2.333c0 .416.506.622.797.33l2.663-2.663h8.237c.772 0 1.4-.628 1.4-1.4V1.653c0-.772-.628-1.4-1.4-1.4" mask="url(#qab4czesqb)"/>
        </g>
    </g>
</svg>
