<svg width="120" height="120" viewBox="0 0 120 120" fill="none" xmlns="http://www.w3.org/2000/svg">
<g clip-path="url(#clip0_35_1073)">
<path d="M107.675 41.4951C112.064 41.4951 115.622 37.9408 115.622 33.5564C115.622 29.1719 112.064 25.6177 107.675 25.6177C103.286 25.6177 99.7275 29.1719 99.7275 33.5564C99.7275 37.9408 103.286 41.4951 107.675 41.4951Z" fill="#DD242E"/>
<path d="M111.038 71.3168C107.318 71.3168 103.41 69.928 100.31 67.0565C98.3559 62.6837 95.688 59.2117 91.6109 56.5655C91.4794 54.1257 94.091 48.9833 99.3517 45.9618C93.6777 43.522 83.4193 45.1172 79.6241 49.6214C72.8979 45.624 67.1488 43.1842 62.0947 41.7203C61.1929 41.5138 59.8026 41.3074 58.1492 41.101L55.9886 45.4926C56.7965 45.5864 57.5856 45.6803 58.2995 45.7929C61.1553 46.2057 63.9923 47.0878 66.8857 48.0262C67.2991 48.1763 67.5245 48.6268 67.3742 49.0209C67.0736 49.7904 66.9233 50.1845 66.6039 50.9539C66.4536 51.3293 66.0215 51.517 65.6269 51.3668C54.1098 47.6509 43.626 47.313 31.9022 50.3346C31.5076 50.4472 31.0755 50.2408 30.944 49.8467C30.6809 49.0584 30.5494 48.6643 30.3052 47.8573C30.1736 47.4632 30.4179 47.0315 30.85 46.9001C34.0628 46.0556 37.2004 45.455 40.3005 45.0985C41.1647 44.9859 42.1605 44.9295 43.2314 44.892L41.0332 40.4441C39.2671 40.5567 37.7077 40.7444 36.5428 41.0447C29.0276 42.9965 22.6584 45.6239 18.788 48.1576C15.8383 45.0985 12.2309 42.0956 8.39816 44.7419C6.78238 45.8679 6.14358 49.1335 6.78238 50.8601C3.32536 52.0612 1.93504 54.3884 2.76171 57.0159C3.68233 59.9061 6.93269 60.8069 10.1643 61.1448C9.28121 65.1986 8.54847 70.3409 8.67999 73.4751C9.09333 82.9339 14.9552 90.8351 16.214 93.2749C17.4728 95.7147 17.3977 99.9749 17.9989 102.677C18.6001 105.38 21.719 112.474 22.5269 114.989C23.316 117.504 24.3117 118.649 24.9693 118.743C25.6081 118.855 30.2676 118.743 32.1276 118.686C33.9876 118.63 34.5889 115.852 34.5325 113.994C34.4761 112.136 34.4949 106.112 36.0168 103.165C37.5574 100.219 40.5071 101.382 41.8975 101.608C43.2878 101.814 49.3752 105.192 57.3789 102.621C57.8298 103.466 59.8026 107.67 60.8547 110.184C61.5687 111.855 63.316 118.048 67.1863 119.362C71.0567 120.657 75.4156 119.568 76.1671 119.08C76.9186 118.592 76.6931 117.241 76.1859 114.632C75.6786 112.024 75.6034 106.187 75.6222 104.704C75.6598 103.222 77.1065 100.05 77.5762 99.0365C78.9665 99.0365 79.718 98.8301 80.2629 97.5163C84.9599 97.8542 89.3188 96.6906 93.0764 93.425C94.0158 93.425 95.7819 93.106 97.548 92.299C98.3747 91.9236 98.4874 90.7976 97.7735 90.2345C97.0971 89.6903 96.4395 89.1272 95.8195 88.5454C94.4292 87.2129 93.1704 85.7491 92.2873 84.06L93.734 82.7463C95.688 85.2423 99.6899 88.6956 104.011 89.0146C108.783 86.8751 113.649 77.3975 113.95 73.9443C114.251 70.491 112.635 70.491 111 71.3168H111.038Z" fill="#FFFBF8"/>
<path d="M54.2413 44.8169L57.6044 38.0043C57.9238 37.3662 58.5438 36.9157 59.2578 36.8031L72.4283 34.8888C74.2131 34.6261 74.9459 32.4303 73.6307 31.1729L64.0863 21.8829C63.579 21.3762 63.3348 20.663 63.4663 19.9498L65.7209 6.83128C66.0215 5.04836 64.1615 3.67832 62.5457 4.52286L50.7655 10.7162C50.1267 11.054 49.3752 11.054 48.7364 10.7162L36.9562 4.52286C35.3592 3.67832 33.4804 5.04836 33.781 6.83128L36.0356 19.9498C36.1483 20.663 35.9229 21.3762 35.4156 21.8829L25.8712 31.1729C24.5748 32.4303 25.2888 34.6449 27.0736 34.8888L40.2441 36.8031C40.9581 36.9157 41.5781 37.3474 41.8975 38.0043L44.8848 44.0474L54.2413 44.8169Z" fill="#DD242E"/>
<path d="M70.0046 118.254C68.5767 118.254 67.0361 118.067 65.533 117.56C61.6251 116.246 59.6899 111.066 58.7693 108.57C58.6378 108.214 58.525 107.913 58.4311 107.688C57.5856 105.699 56.2141 102.715 55.4626 101.138C49.037 102.846 43.9642 101.063 41.4654 100.181C41.0896 100.05 40.6011 99.8809 40.4508 99.8622C40.2254 99.8246 39.9811 99.7683 39.6993 99.712C37.9332 99.3367 36.6932 99.2053 35.8853 100.763C34.6453 103.146 34.4574 108.289 34.5325 110.954C34.5701 112.192 34.3634 113.487 33.9501 114.482C33.1046 116.565 31.6767 116.922 30.8876 116.941C30.6246 116.941 24.4245 117.147 23.4851 116.978C22.1324 116.772 20.9111 115.12 20.0469 112.343C19.7463 111.385 19.0511 109.621 18.3184 107.763C17.1347 104.76 15.8947 101.645 15.5001 99.9372C15.2747 98.905 15.1432 97.7227 15.0116 96.484C14.7862 94.4759 14.5419 92.205 13.828 90.8349C13.6213 90.4408 13.3019 89.8966 12.8886 89.2209C10.8219 85.8052 6.5006 78.6923 6.14363 70.5096C6.01211 67.3942 6.66969 62.7399 7.36486 59.2115C4.52784 58.7611 1.31507 57.6538 0.262931 54.3883C-0.714053 51.3292 0.713847 48.6079 4.02056 47.0689C3.75753 44.8356 4.56542 41.9266 6.38787 40.6692C10.991 37.4787 15.3498 41.1571 17.6983 43.5031C20.5541 41.7577 26.5851 38.5672 35.0022 36.7655C35.6974 36.6154 36.3738 37.0658 36.5053 37.7414C36.6556 38.4358 36.2047 39.1115 35.5283 39.2428C26.5288 41.1571 20.4226 44.723 18.2056 46.1681C17.6983 46.5059 17.022 46.4308 16.5898 45.9804C12.7007 41.9641 10.2582 41.0633 7.83456 42.7336C6.72606 43.5031 6.21878 46.1118 6.68848 47.3692C6.80121 47.6882 6.80121 48.0448 6.65091 48.3451C6.5006 48.6454 6.23757 48.8894 5.91817 49.002C4.33996 49.5462 1.84114 50.8787 2.6866 53.5813C3.26904 55.4017 5.27937 56.4339 9.01822 56.8281C9.37519 56.8656 9.71338 57.0533 9.92005 57.3536C10.1267 57.6538 10.2019 58.0104 10.1267 58.367C9.30004 62.1205 8.54851 67.2816 8.68003 70.3783C9.01822 77.9228 12.9449 84.3977 15.0492 87.8884C15.5001 88.6204 15.8571 89.2209 16.0826 89.6526C17.0032 91.4355 17.2662 93.8378 17.5293 96.1837C17.6608 97.3661 17.7735 98.4734 17.9802 99.3554C18.3184 100.876 19.5772 104.029 20.6669 106.806C21.456 108.796 22.1324 110.503 22.4705 111.573C23.1093 113.619 23.8045 114.388 24.0112 114.482C24.4057 114.52 27.9567 114.463 30.8125 114.37C31.4513 114.351 32.0337 112.68 31.9774 110.991C31.9398 109.678 31.8083 102.978 33.6119 99.5431C35.3968 96.1462 38.6471 96.8593 40.2254 97.1972C40.4508 97.2535 40.6387 97.291 40.8266 97.3098C41.2023 97.3661 41.6345 97.5162 42.2921 97.7602C44.6594 98.6047 49.6007 100.331 55.7256 98.3795C56.308 98.1918 56.9468 98.4546 57.2474 98.9989C57.7359 99.9372 59.7463 104.235 60.7796 106.675C60.8923 106.919 61.0051 107.257 61.1554 107.669C61.9445 109.79 63.579 114.219 66.3409 115.139C69.6288 116.246 73.2737 115.402 74.1192 115.045C74.1944 114.52 73.8937 112.924 73.6871 111.855C73.1234 108.983 73.0859 102.696 73.0859 101.664C73.1234 100.012 74.401 97.0846 75.1713 95.4705C75.378 95.0389 75.8289 94.7574 76.2986 94.7386C77.5199 94.7386 77.5762 94.5885 77.8205 94.0067C78.0271 93.4999 78.5344 93.1997 79.0793 93.2372C83.7575 93.5563 87.6467 92.3364 90.9722 89.4461C91.1976 89.2397 91.4983 89.1271 91.7989 89.1271C92.6255 89.1271 94.2225 88.808 95.7632 88.1136C95.0304 87.6632 94.3541 87.0814 93.6777 86.4433C91.9492 84.7918 90.7279 83.2153 89.8825 81.6201C89.6194 81.1133 89.7322 80.494 90.1455 80.0999L91.5922 78.7862C91.8552 78.5422 92.2122 78.4296 92.5504 78.4483C92.9074 78.4859 93.2268 78.6548 93.4522 78.9363C94.9741 80.8881 98.5626 84.2288 102.489 84.6792C106.548 82.5584 111.113 73.9441 111.395 70.7912C111.508 69.515 111.301 69.1208 111.263 69.0645C111.263 69.0645 110.963 69.0645 110.305 69.4024C110.117 69.4962 109.929 69.5337 109.723 69.5337C105.439 69.5337 101.324 67.9009 98.1305 64.9357C97.999 64.8231 97.905 64.6729 97.8299 64.5228C95.8571 60.1124 93.2456 56.9407 89.6006 54.576C89.2625 54.3507 89.0558 53.9942 89.0182 53.5813C88.8679 50.8224 91.1225 46.4871 95.1056 43.3529C89.6194 42.2644 82.1042 44.0098 79.2672 47.388C78.8726 47.8572 78.1775 47.9885 77.6514 47.6695C71.4889 44.0098 65.8524 41.4762 60.4226 39.8997C59.7463 39.712 59.3517 38.9988 59.5584 38.3232C59.7463 37.6476 60.4602 37.2535 61.1366 37.4599C66.51 39.0176 72.0525 41.4949 78.0647 44.9669C82.8369 40.444 92.9449 39.3554 98.525 41.7577C98.9759 41.9454 99.2578 42.377 99.2953 42.8462C99.3329 43.3342 99.0699 43.7846 98.6565 44.0286C94.2038 46.5997 91.8928 50.7286 91.5922 52.8681C95.2935 55.4205 97.9802 58.7611 100.047 63.2653C102.658 65.6113 105.984 66.9438 109.441 67.0001C110.756 66.3995 111.846 66.3995 112.71 66.9813C114.213 67.9948 114.006 70.2844 113.95 71.0351C113.612 74.92 108.445 84.8293 103.26 87.1565C103.072 87.2503 102.865 87.2691 102.64 87.2691C99.5208 87.0439 96.5523 85.3923 94.2601 83.4405C94.6171 83.8346 95.0116 84.2288 95.425 84.6416C96.045 85.2234 96.665 85.7677 97.3038 86.2557C97.999 86.7999 98.3372 87.6445 98.2432 88.5265C98.1305 89.3898 97.6044 90.1218 96.8153 90.4596C95.0868 91.2291 93.4146 91.5857 92.3061 91.6607C88.774 94.5885 84.5466 95.996 79.7181 95.8271C79.0229 96.8593 78.0647 97.1596 77.1253 97.2535C76.2235 99.2616 75.6223 101.007 75.6035 101.72C75.5847 103.128 75.6598 108.908 76.1483 111.385C76.712 114.276 77.0877 116.19 75.5659 117.147C74.8707 117.598 72.6349 118.236 69.967 118.236L70.0046 118.254Z" fill="#36404A"/>
<path d="M53.0951 42.8088C52.9072 42.8088 52.7194 42.7712 52.5315 42.6774C51.8927 42.3583 51.6484 41.6076 51.949 40.9695L55.1806 34.4197C55.6879 33.4062 56.6649 32.693 57.7922 32.5241L70.9627 30.6098C71.47 30.5348 71.639 30.1594 71.6954 29.9905C71.7518 29.8216 71.8269 29.4087 71.47 29.0521L61.9256 19.7622C61.1177 18.9739 60.7419 17.8291 60.9298 16.703L63.1844 3.58449C63.2783 3.07777 62.9589 2.79625 62.8274 2.68365C62.6959 2.58981 62.3201 2.38337 61.8692 2.60858L50.089 8.80188C49.0745 9.32738 47.872 9.32738 46.8762 8.80188L35.0961 2.60858C34.6452 2.3646 34.2694 2.57104 34.1379 2.68365C34.0064 2.77749 33.687 3.07777 33.7809 3.58449L36.0355 16.703C36.2234 17.8291 35.8476 18.9739 35.0397 19.7622L25.4953 29.0521C25.1196 29.4087 25.2135 29.8216 25.2699 29.9905C25.3262 30.1594 25.4953 30.5348 26.0026 30.6098L39.1731 32.5241C40.3004 32.693 41.2774 33.3874 41.7847 34.4197L44.772 40.4628C45.0914 41.1009 44.8283 41.8516 44.1895 42.1707C43.5507 42.4897 42.7992 42.227 42.4798 41.5889L39.4925 35.5457C39.361 35.283 39.0979 35.0953 38.7973 35.039L25.6268 33.1247C24.3117 32.937 23.2407 32.0362 22.8274 30.7787C22.4141 29.5213 22.7522 28.17 23.7104 27.2317L33.236 17.9417C33.4427 17.7353 33.5554 17.435 33.4991 17.1347L31.2445 4.01615C31.019 2.70242 31.5451 1.40745 32.616 0.63798C33.687 -0.131492 35.0773 -0.244097 36.2609 0.375234L48.0411 6.56854C48.3041 6.69991 48.6235 6.69991 48.8866 6.56854L60.7043 0.394001C61.888 -0.22533 63.2783 -0.112724 64.3492 0.656747C65.4202 1.44499 65.9462 2.72118 65.7208 4.03491L63.4662 17.1535C63.4098 17.4537 63.5226 17.754 63.7292 17.9605L73.2736 27.2504C74.2318 28.17 74.5512 29.5401 74.1567 30.7975C73.7433 32.0549 72.6724 32.9558 71.3572 33.1435L58.1867 35.0578C57.8861 35.0953 57.6419 35.283 57.4916 35.5645L54.26 42.1144C54.0345 42.5648 53.5836 42.8275 53.1139 42.8275L53.0951 42.8088Z" fill="#36404A"/>
<path d="M64.6499 49.6777C64.4056 49.6777 64.1614 49.6402 63.9171 49.5463C52.663 45.9054 42.4798 45.6051 30.9627 48.5516C29.9294 48.8519 28.8209 48.2889 28.4827 47.2379C28.276 46.6373 28.1633 46.262 28.013 45.7553L27.8439 45.2298C27.5057 44.1788 28.1257 43.034 29.2154 42.6774C32.5973 41.7953 35.7537 41.1947 38.9101 40.8194C39.6053 40.7443 40.2441 41.2323 40.3192 41.9267C40.3944 42.6211 39.9059 43.2592 39.2107 43.3342C36.3361 43.6721 33.4615 44.1975 30.4554 44.967C30.5682 45.3048 30.6621 45.6051 30.7748 45.9429C42.4986 42.9964 52.9073 43.3342 64.3868 46.9752C64.5184 46.6373 64.6311 46.3558 64.7626 46.018C62.1135 45.1735 59.4268 44.4791 56.834 43.9911C56.1388 43.8597 55.6879 43.1841 55.8194 42.5085C55.951 41.8141 56.6085 41.3636 57.3037 41.495C60.1407 42.0393 63.0905 42.8087 66.059 43.7659C67.1863 44.1976 67.7311 45.3611 67.3554 46.4121C67.036 47.2191 66.8857 47.5945 66.5663 48.3827C66.3972 48.8519 66.0214 49.246 65.5329 49.4712C65.2699 49.5839 64.9693 49.6589 64.6875 49.6589L64.6499 49.6777Z" fill="#36404A"/>
<path d="M92.6632 67.0378C92.1559 68.6143 90.728 69.5526 89.488 69.1398C88.248 68.7269 87.6468 67.1316 88.1541 65.5739C88.6613 63.9974 90.0892 63.0778 91.3481 63.4907C92.6069 63.9036 93.1705 65.4988 92.6632 67.0566V67.0378Z" fill="#36404A"/>
<path d="M10.0704 53.8067C9.65704 54.6325 8.4546 54.8952 7.40246 54.3697C6.33153 53.8443 5.80547 52.737 6.21881 51.9112C6.63214 51.0854 7.83459 50.8227 8.88672 51.3482C9.95765 51.8737 10.4837 52.9809 10.0704 53.8067Z" fill="#36404A"/>
<path d="M13.1705 49.4901C12.3814 49.9968 11.2353 49.5839 10.5965 48.5893C9.95775 47.5946 10.0705 46.3747 10.8596 45.868C11.6487 45.3612 12.7948 45.7741 13.4336 46.7688C14.0724 47.7635 13.9596 48.9834 13.1705 49.4901Z" fill="#36404A"/>
<path d="M117.144 40.0687L119.643 37.5726C120.113 37.1035 120.113 36.334 119.643 35.846C119.173 35.3581 118.403 35.3768 117.915 35.846L115.416 38.3421L112.917 35.846C112.447 35.3768 111.677 35.3768 111.188 35.846C110.719 36.3152 110.719 37.0847 111.188 37.5726L113.687 40.0687L111.188 42.5648C110.719 43.034 110.719 43.8035 111.188 44.2914C111.433 44.5354 111.733 44.648 112.053 44.648C112.372 44.648 112.673 44.5354 112.917 44.2914L115.416 41.7954L117.915 44.2914C118.159 44.5354 118.459 44.648 118.779 44.648C119.098 44.648 119.399 44.5354 119.643 44.2914C120.113 43.8223 120.113 43.0528 119.643 42.5648L117.144 40.0687Z" fill="#36404A"/>
</g>
<defs>
<clipPath id="clip0_35_1073">
<rect width="120" height="120" fill="white"/>
</clipPath>
</defs>
</svg>
