<svg width="145" height="112" viewBox="0 0 145 112" fill="none" xmlns="http://www.w3.org/2000/svg">
<g clip-path="url(#clip0_35_1149)">
<path d="M91.806 59.4224H12.1648C11.1461 59.4224 10.3071 60.263 10.3071 61.2837V110.119C10.3071 111.139 11.1461 111.98 12.1648 111.98H92.3453C93.0844 111.98 93.6836 111.379 93.6836 110.639V61.2837C93.6836 60.263 92.8447 59.4224 91.8259 59.4224H91.806ZM75.5861 80.2172L66.1378 89.3437C65.6185 89.8441 65.3987 90.5446 65.5186 91.2451L67.7558 104.134C68.0554 105.896 66.1977 107.237 64.6197 106.396L52.9342 100.312C52.295 99.9913 51.5559 99.9913 50.9167 100.312L39.2312 106.396C37.6332 107.216 35.7755 105.896 36.0951 104.134L38.3323 91.2451C38.4522 90.5446 38.2125 89.8441 37.7131 89.3437L28.2648 80.2172C26.9864 78.9763 27.6856 76.8148 29.4633 76.5546L42.5271 74.6733C43.2263 74.5732 43.8455 74.1329 44.1651 73.4924L49.9979 61.764C50.7969 60.1629 53.094 60.1629 53.893 61.764L59.7258 73.4924C60.0454 74.1329 60.6446 74.5732 61.3637 74.6733L74.4275 76.5546C76.2053 76.8148 76.9045 78.9763 75.626 80.2172H75.5861Z" fill="#FFFBF8"/>
<path d="M98.8772 37.7269V55.3195C98.8772 56.06 98.2779 56.6604 97.5389 56.6604H7.71037C6.35205 56.6604 5.25342 55.5596 5.25342 54.1987V37.7469C5.25342 36.3859 6.35205 35.2852 7.71037 35.2852H96.4202C97.7786 35.2852 98.8772 36.3859 98.8772 37.7469V37.7269Z" fill="#FFFBF8"/>
<path d="M53.8529 64.4861L58.9466 74.8334C59.2263 75.3938 59.7456 75.7741 60.3649 75.8742L71.7707 77.5354C73.3288 77.7555 73.948 79.6769 72.8094 80.7777L64.5597 88.8434C64.1202 89.2838 63.9005 89.9042 64.0203 90.5246L65.9779 101.913C66.2376 103.454 64.6196 104.635 63.2413 103.914L53.034 98.5504C52.4747 98.2502 51.8155 98.2502 51.2761 98.5504L41.0688 103.914C39.6905 104.655 38.0526 103.474 38.3322 101.913L40.2898 90.5246C40.3897 89.9042 40.1899 89.2838 39.7504 88.8434L31.5007 80.7777C30.3821 79.6769 31.0013 77.7755 32.5394 77.5354L43.9452 75.8742C44.5645 75.7941 45.1038 75.3938 45.3635 74.8334L50.4572 64.4861C51.1563 63.0851 53.1538 63.0851 53.8529 64.4861Z" fill="#DD242E"/>
<path d="M36.5346 102.113C35.8754 102.113 35.2162 101.913 34.637 101.492C33.6382 100.772 33.1388 99.5511 33.3585 98.3302L35.2961 86.9621C35.3361 86.782 35.2762 86.6019 35.1363 86.4618L26.8866 78.396C26.0077 77.5354 25.6881 76.2545 26.0676 75.0936C26.4471 73.9128 27.4459 73.0722 28.6644 72.8921L40.0702 71.2309C40.25 71.2109 40.4098 71.0908 40.4897 70.9307L45.5834 60.5833C46.1227 59.4625 47.2413 58.782 48.4798 58.782C49.7182 58.782 50.8169 59.4625 51.3762 60.5833L56.4699 70.9307C56.5498 71.0908 56.7096 71.2109 56.8893 71.2309L68.2952 72.8921C69.5137 73.0722 70.5124 73.9128 70.892 75.0936C71.2715 76.2745 70.9519 77.5354 70.073 78.396L61.8232 86.4618C61.6834 86.5818 61.6235 86.782 61.6634 86.9621L63.621 98.3502C63.8207 99.5711 63.3413 100.772 62.3426 101.513C61.3438 102.233 60.0454 102.333 58.9468 101.753L48.7395 96.3888C48.5796 96.3088 48.3799 96.3088 48.2201 96.3888L38.0128 101.753C37.5334 102.013 37.014 102.133 36.5146 102.133L36.5346 102.113ZM48.4998 61.4439C48.3599 61.4439 48.1402 61.4839 48.0004 61.7641L42.9067 72.1115C42.4273 73.0722 41.5284 73.7327 40.4697 73.8728L29.0639 75.534C28.7642 75.574 28.6444 75.7941 28.6044 75.9142C28.5645 76.0343 28.5245 76.2745 28.7443 76.4946L36.994 84.5604C37.7531 85.3009 38.0927 86.3817 37.9129 87.4224L35.9753 98.8106C35.9154 99.1108 36.0951 99.2909 36.195 99.351C36.2949 99.431 36.5146 99.5311 36.7743 99.391L46.9816 94.0272C47.9205 93.5268 49.0391 93.5268 49.9779 94.0272L60.1852 99.391C60.4449 99.5311 60.6646 99.431 60.7645 99.351C60.8644 99.2709 61.0442 99.1108 60.9842 98.8106L59.0267 87.4224C58.8469 86.3817 59.1865 85.3009 59.9455 84.5604L68.1953 76.4946C68.415 76.2745 68.3751 76.0343 68.3351 75.9142C68.2952 75.7941 68.1753 75.574 67.8757 75.534L56.4699 73.8728C55.4112 73.7126 54.5123 73.0522 54.0329 72.1115L48.9392 61.7641C48.7994 61.4839 48.5597 61.4439 48.4398 61.4439H48.4998Z" fill="#36404A"/>
<path d="M90.3479 53.218H6.65181C5.91273 53.218 5.31348 53.8184 5.31348 54.559V108.918C5.31348 109.658 5.91273 110.259 6.65181 110.259H90.3479C91.087 110.259 91.6863 109.658 91.6863 108.918V54.539C91.6863 53.7984 91.107 53.198 90.3479 53.198V53.218ZM89.0096 107.577H7.97018V55.8799H89.0096V107.577Z" fill="#36404A"/>
<path d="M95.6613 30.5818H1.33834C0.599256 30.5818 0 31.1622 0 31.9227V54.5589C0 55.2994 0.599256 55.8999 1.33834 55.8999H95.6613C96.4003 55.8999 96.9996 55.2994 96.9996 54.5589V31.9027C96.9996 31.1622 96.4003 30.5618 95.6613 30.5618V30.5818ZM94.3229 53.2179H2.6567V33.2437H94.3229V53.2179Z" fill="#36404A"/>
<path d="M57.7484 110.239H39.2314C38.4923 110.239 37.8931 109.638 37.8931 108.898V103.794C37.8931 103.054 38.4923 102.453 39.2314 102.453C39.9705 102.453 40.5697 103.054 40.5697 103.794V107.577H56.4301V103.794C56.4301 103.054 57.0293 102.453 57.7684 102.453C58.5075 102.453 59.1067 103.054 59.1067 103.794V108.898C59.1067 109.638 58.5075 110.239 57.7684 110.239H57.7484Z" fill="#36404A"/>
<path d="M57.7484 68.2688C57.0093 68.2688 56.41 67.6683 56.41 66.9278V55.8599H40.5497V66.9278C40.5497 67.6683 39.9505 68.2688 39.2114 68.2688C38.4723 68.2688 37.873 67.6683 37.873 66.9278V54.539C37.873 53.7984 38.4723 53.198 39.2114 53.198H57.7284C58.4675 53.198 59.0667 53.7984 59.0667 54.539V66.9278C59.0667 67.6683 58.4675 68.2688 57.7284 68.2688H57.7484Z" fill="#36404A"/>
<path d="M59.6059 55.8799H37.3735C36.6344 55.8799 36.0352 55.2795 36.0352 54.539V32.2631C36.0352 31.5226 36.6344 30.9221 37.3735 30.9221H59.6059C60.345 30.9221 60.9442 31.5226 60.9442 32.2631V54.539C60.9442 55.2795 60.345 55.8799 59.6059 55.8799ZM38.7118 53.218H58.2676V33.624H38.7118V53.218Z" fill="#36404A"/>
<path d="M86.2929 33.2437H57.5485C56.8095 33.2437 56.2102 32.6433 56.2102 31.9028C56.2102 29.1008 54.6921 26.4989 52.2351 25.1379C51.9155 24.9578 51.6758 24.6576 51.5959 24.2973C51.516 23.9371 51.576 23.5568 51.7757 23.2566C56.1503 16.5518 60.9843 12.3488 67.4363 9.66689C73.0493 7.32522 79.4214 7.50535 84.4551 10.1472C88.4502 12.2287 91.1269 15.5711 91.9858 19.554C93.0844 24.5575 91.3666 29.3209 87.1518 32.9435C86.9121 33.1437 86.6125 33.2638 86.2929 33.2638V33.2437ZM58.787 30.5818H85.7935C88.1106 28.4603 90.4677 24.9978 89.389 20.1144C88.6899 16.9321 86.4926 14.2302 83.2167 12.5089C78.8621 10.2273 73.3489 10.0872 68.455 12.1286C62.802 14.4903 58.6472 17.9528 54.732 23.5968C56.9693 25.278 58.4275 27.7998 58.787 30.5618V30.5818ZM39.451 33.2437H10.7067C10.3871 33.2437 10.0875 33.1237 9.84776 32.9235C5.63299 29.3009 3.91513 24.5375 5.01376 19.5339C5.89267 15.5511 8.56935 12.2287 12.5444 10.1272C17.5782 7.48533 23.9503 7.3052 29.5633 9.64688C36.0353 12.3288 40.8693 16.5318 45.2238 23.2366C45.4236 23.5568 45.4835 23.9371 45.4036 24.2773C45.3237 24.6376 45.084 24.9378 44.7644 25.1179C42.3075 26.4789 40.7894 29.0808 40.7894 31.8828C40.7894 32.6233 40.1901 33.2237 39.451 33.2237V33.2437ZM11.2061 30.5818H38.2126C38.5721 27.7998 40.0303 25.2981 42.2675 23.6169C38.3724 17.9528 34.2175 14.4903 28.5446 12.1487C23.6506 10.1072 18.1175 10.2473 13.7829 12.5289C10.5069 14.2502 8.30967 16.9521 7.61054 20.1344C6.53188 25.0179 8.88895 28.4803 11.2061 30.6018V30.5818Z" fill="#36404A"/>
<path d="M57.5487 33.2438H39.4712C38.7321 33.2438 38.1328 32.6433 38.1328 31.9028C38.1328 26.1787 42.787 21.5154 48.4999 21.5154C54.2129 21.5154 58.8671 26.1787 58.8671 31.9028C58.8671 32.6433 58.2678 33.2438 57.5287 33.2438H57.5487ZM40.9094 30.5819H56.1105C55.4713 26.9593 52.3152 24.1973 48.5199 24.1973C44.7246 24.1973 41.5486 26.9593 40.9293 30.5819H40.9094Z" fill="#36404A"/>
<path d="M50.0579 24.3175C50.0579 24.3175 49.958 24.3175 49.9181 24.3175C49.179 24.2374 48.6597 23.5769 48.7396 22.8364C49.3588 17.0923 52.8544 3.3825 71.6911 0.0200994C72.4301 -0.0999864 73.1093 0.380357 73.2292 1.10087C73.349 1.82139 72.8696 2.52189 72.1505 2.64197C55.0917 5.68414 51.9356 17.9729 51.3563 23.1166C51.2764 23.7971 50.6971 24.2974 50.0379 24.2974L50.0579 24.3175Z" fill="#36404A"/>
<path d="M46.9415 24.3173C46.2623 24.3173 45.703 23.8169 45.6231 23.1364C45.0638 17.9928 41.9077 5.70397 24.8289 2.6618C24.1098 2.54171 23.6304 1.84121 23.7503 1.1207C23.8701 0.400182 24.5693 -0.100176 25.2884 0.0399245C44.125 3.40233 47.6207 17.1121 48.2599 22.8562C48.3398 23.5968 47.8204 24.2572 47.0813 24.3373C47.0214 24.3373 46.9815 24.3373 46.9415 24.3373V24.3173Z" fill="#36404A"/>
<path d="M144.818 88.8159C146.123 80.3386 140.322 72.4062 131.862 71.0984C123.401 69.7906 115.484 75.6026 114.179 84.0799C112.874 92.5572 118.674 100.49 127.135 101.797C135.596 103.105 143.513 97.2932 144.818 88.8159Z" fill="#DD242E"/>
<path d="M118.313 109.358C112.54 109.358 107.846 104.655 107.846 98.8708C107.846 93.0867 112.54 88.3833 118.313 88.3833C124.086 88.3833 128.78 93.0867 128.78 98.8708C128.78 104.655 124.086 109.358 118.313 109.358ZM118.313 92.2861C114.698 92.2861 111.741 95.2482 111.741 98.8708C111.741 102.493 114.698 105.455 118.313 105.455C121.929 105.455 124.885 102.493 124.885 98.8708C124.885 95.2482 121.929 92.2861 118.313 92.2861Z" fill="#36404A"/>
</g>
<defs>
<clipPath id="clip0_35_1149">
<rect width="145" height="112" fill="white"/>
</clipPath>
</defs>
</svg>
