<svg width="260" height="100" viewBox="0 0 260 100" fill="none" xmlns="http://www.w3.org/2000/svg">
<rect width="260" height="100" fill="white"/>
<g clip-path="url(#clip0_250_323)">
<path d="M36.1047 45.9534C36.1047 48.7688 33.2909 48.9847 32.0757 48.9847C31.4774 48.9847 31.0381 48.9356 31.0381 48.9356V43.3243C31.0381 43.3243 31.6083 43.2753 32.674 43.2753C34.3099 43.2753 36.1047 44.011 36.1047 45.9534ZM39.7691 53.3599C39.7691 49.6615 34.8427 49.3476 34.8427 49.3476C34.8427 49.3476 38.1986 48.4549 38.1986 45.8161C38.1986 42.824 34.4127 42.3531 32.7207 42.3531H28C28.4487 42.5297 28.6917 42.8535 28.6917 43.3734V56.5677C28.6917 57.068 28.4394 57.382 28 57.5782H33.3657C38.6847 57.5782 39.7691 55.1159 39.7691 53.3697M37.3947 53.1441C37.3947 56.4795 33.7677 56.6855 32.1972 56.6855C31.4774 56.6855 31.0287 56.6364 31.0287 56.6364V49.9951C31.0287 49.9951 32.244 49.9558 33.0105 49.9558C35.0951 49.9558 37.3853 50.5346 37.3853 53.1539" fill="black"/>
<path d="M191.916 45.9534C191.916 48.7689 189.112 48.9847 187.887 48.9847C187.289 48.9847 186.84 48.9357 186.84 48.9357V43.3244C186.84 43.3244 187.41 43.2753 188.485 43.2753C190.121 43.2753 191.916 44.0111 191.916 45.9534ZM195.581 53.3599C195.581 49.6616 190.663 49.3477 190.663 49.3477C190.663 49.3477 194.019 48.455 194.019 45.8161C194.019 42.8241 190.224 42.3434 188.542 42.3434H183.821C184.27 42.52 184.513 42.8437 184.513 43.3636V56.558C184.513 57.0583 184.26 57.3722 183.821 57.5684H189.187C194.505 57.5684 195.59 55.1061 195.59 53.3599M193.215 53.1343C193.215 56.4697 189.588 56.6757 188.027 56.6757C187.308 56.6757 186.859 56.6266 186.859 56.6266V49.9853C186.859 49.9853 188.074 49.9461 188.85 49.9461C190.935 49.9461 193.225 50.5249 193.225 53.1441" fill="black"/>
<path d="M50.1547 52.0748H44.574C45.6677 49.6616 47.3503 45.8161 47.3503 45.8161C47.3503 45.8161 48.8647 49.2594 50.1547 52.0748ZM56.0626 57.5684C55.1932 57.2054 55.0156 56.9405 54.8193 56.4697C54.4174 55.626 48.014 42 48.014 42C48.014 42 41.6387 55.626 41.2181 56.4697C40.9937 56.8915 40.7694 57.1367 40.0776 57.5684H43.1064C42.4614 57.3427 42.3866 56.9896 42.5829 56.4697C42.6764 56.2048 43.3307 54.7235 44.144 53.046H50.5754C51.3419 54.7725 52.0336 56.2048 52.1926 56.4697C52.3889 56.9798 52.2206 57.2937 51.5756 57.5684H56.072H56.0626Z" fill="black"/>
<path d="M70.776 43.3734V57.9902C70.776 57.9902 58.9415 45.0705 58.9415 44.8547V56.5678C58.9415 57.0583 59.1939 57.3722 59.6426 57.5684H57.1373C57.5113 57.3722 57.7824 57.0485 57.7824 56.5678V44.2269C57.7824 43.5794 57.7824 43.5304 57.4832 43.1772C57.2121 42.9123 56.913 42.5984 56.3428 42.3728H59.7641L69.5981 53.252V43.3734C69.5981 42.8633 69.3177 42.5494 68.9531 42.3728H71.4584C71.0564 42.5494 70.7853 42.8633 70.7853 43.3734" fill="black"/>
<path d="M82.2836 52.0846H76.7029C77.7966 49.6714 79.4792 45.8259 79.4792 45.8259C79.4792 45.8259 80.9936 49.2692 82.2836 52.0846ZM88.1915 57.5782C87.3222 57.2152 87.1539 56.9503 86.9482 56.4795C86.5556 55.626 80.1523 42 80.1523 42C80.1523 42 73.7676 55.626 73.347 56.4697C73.1226 56.8915 72.8983 57.1367 72.2065 57.5684H75.2353C74.5903 57.3427 74.5155 56.9798 74.7118 56.4697C74.8146 56.195 75.4503 54.7235 76.2729 53.046H82.7043C83.4708 54.7725 84.1719 56.2048 84.3215 56.4697C84.5178 56.9798 84.3495 57.2937 83.7045 57.5684H88.2009L88.1915 57.5782Z" fill="black"/>
<path d="M103.017 43.3832V58C103.017 58 91.1828 45.0803 91.1828 44.8547V56.5678C91.1828 57.0583 91.4258 57.3722 91.8745 57.5782H89.3693C89.7432 57.382 90.0143 57.0681 90.0143 56.5678V44.2269C90.0143 43.5794 90.0143 43.5402 89.7151 43.1772C89.4441 42.9123 89.1449 42.5984 88.5747 42.3728H91.996L101.83 53.252V43.3832C101.83 42.8633 101.559 42.5592 101.185 42.3728H103.69C103.288 42.5494 103.017 42.8633 103.017 43.3832Z" fill="black"/>
<path d="M114.272 52.0748H108.682C109.776 49.6616 111.458 45.8161 111.458 45.8161C111.458 45.8161 112.973 49.2594 114.263 52.0748M120.171 57.5684C119.301 57.2152 119.124 56.9405 118.927 56.4697C118.525 55.626 112.122 42 112.122 42C112.122 42 105.737 55.626 105.317 56.4697C105.092 56.9013 104.868 57.1465 104.176 57.5684H107.205C106.56 57.3427 106.485 56.9896 106.682 56.4697C106.784 56.2048 107.429 54.7235 108.243 53.046H114.674C115.45 54.7725 116.142 56.2048 116.291 56.4697C116.488 56.9798 116.319 57.3035 115.674 57.5684H120.171Z" fill="black"/>
<path d="M135.903 46.1496C135.903 48.4942 134.043 49.5046 132.155 49.5046C131.51 49.5046 130.715 49.4653 130.715 49.4653V43.3243C130.715 43.3243 131.463 43.2458 132.575 43.2458C135.211 43.2458 135.903 45.0999 135.903 46.1594M142.213 57.5782C142.213 57.5782 141.166 57.2152 140.624 56.6855C139.558 55.6358 136.894 51.5352 136.894 51.5352C136.52 51.0447 135.828 50.103 134.482 49.8479C136.025 49.74 138.119 48.504 138.119 46.0907C138.119 44.6781 137.343 42.3826 132.37 42.3826H127.705C128.079 42.5591 128.369 42.8436 128.369 43.3636V56.5775C128.369 57.068 128.07 57.382 127.705 57.588H131.407C131.033 57.3918 130.715 57.068 130.715 56.5775V50.4169H132.155C133.445 50.4169 133.968 51.3783 134.613 52.271C135.483 53.5267 136.38 54.8902 137.651 56.5677C138.025 57.0386 138.717 57.637 139.689 57.6174L142.222 57.5782H142.213Z" fill="black"/>
<path d="M153.636 57.5683H143.653C144.102 57.3623 144.401 57.0974 144.401 56.5579V43.3831C144.401 42.8632 144.102 42.5493 143.709 42.3629H153.048L153.094 44.0993C152.599 43.5793 152.075 43.3145 151.01 43.3145H146.738V48.6609H150.785C151.131 48.6609 151.524 48.3077 151.655 48.0331V50.2109C151.533 49.9362 151.131 49.583 150.785 49.583H146.738V56.6167H149.626C152.309 56.5971 153.244 56.5971 154.16 55.1943L153.636 57.5683Z" fill="black"/>
<path d="M165.125 46.5616C165.125 49.6223 162.227 50.0539 160.89 50.0539C160.376 50.0539 159.9 49.9853 159.675 49.897V43.3243C159.675 43.3243 160.199 43.2557 161.339 43.2557C163.835 43.2557 165.125 44.5309 165.125 46.5714M167.247 46.5322C167.247 44.786 166.359 42.3826 161.405 42.3826H156.656C157.03 42.569 157.348 42.8829 157.348 43.393V56.5775C157.348 57.068 157.02 57.382 156.646 57.5782H160.348C159.928 57.382 159.657 57.068 159.657 56.5775V50.6229C161.564 51.3194 163.816 50.7995 164.583 50.4856C165.349 50.1717 167.238 48.965 167.238 46.5322" fill="black"/>
<path d="M181.512 43.3832V52.7517C181.484 56.4206 178.885 57.7842 175.781 57.7842C173.052 57.7842 169.546 56.5678 169.546 52.791V43.3832C169.546 42.8633 169.154 42.5592 168.78 42.3728H172.753C172.351 42.5494 171.93 42.8633 171.93 43.3832V52.84C171.93 54.3802 172.528 56.7444 176.024 56.7444C179.521 56.7444 180.427 54.851 180.399 52.84V43.3832C180.399 42.8633 180.147 42.5592 179.745 42.3728H182.166C181.773 42.5494 181.502 42.8633 181.502 43.3832" fill="black"/>
<path d="M207.602 57.5683H197.712C198.133 57.3623 198.404 57.0484 198.404 56.5579V43.3733C198.404 42.8632 198.133 42.5493 197.712 42.3629H201.442C201.04 42.5493 200.769 42.8534 200.769 43.3733V56.6167H203.424C206.405 56.5971 207.247 56.5481 208.097 55.1943L207.602 57.5683Z" fill="black"/>
<path d="M210.275 57.5684C210.668 57.3624 210.948 57.0485 210.948 56.558V43.3734C210.948 42.8633 210.677 42.5494 210.275 42.3728H213.958C213.585 42.5494 213.313 42.8633 213.313 43.3734V56.558C213.313 57.0485 213.585 57.3624 213.958 57.5684H210.275Z" fill="black"/>
<path d="M231.776 56.2441C229.719 57.3624 227.382 57.7744 225.522 57.7744C220.605 57.7744 216.277 54.6745 216.277 49.9951C216.277 46.1889 219.493 42.1276 225.793 42.1276C227.85 42.1276 229.719 42.6475 231.654 43.4127C231.654 43.4127 231.925 46.8167 231.879 46.7284C230.289 43.4127 227.214 43.0791 225.999 43.0791C221.259 43.0791 218.829 46.081 218.829 49.7106C218.829 52.9283 220.792 56.7836 225.98 56.7836C227.102 56.7836 230.121 56.7149 232.009 53.1539C232.056 53.0853 231.785 56.2441 231.785 56.2441" fill="black"/>
</g>
<defs>
<clipPath id="clip0_250_323">
<rect width="204" height="16" fill="white" transform="translate(28 42)"/>
</clipPath>
</defs>
</svg>
