<svg width="260" height="100" viewBox="0 0 260 100" fill="none" xmlns="http://www.w3.org/2000/svg">
<rect width="260" height="100" fill="white"/>
<g clip-path="url(#clip0_250_315)">
<path d="M149.058 50.811L146.477 53.5652V59.6651H144.116V40.3605H146.477V50.6563L156.032 40.3605H158.856L150.686 49.0853L158.856 59.6651H156.142L149.058 50.811Z" fill="#231F20"/>
<path d="M162.223 40H160.079V59.665H162.223V40Z" fill="#231F20"/>
<path d="M166.566 51.6083H176.364C175.931 49.573 174.33 47.6945 171.477 47.6945C168.624 47.6945 166.917 49.6768 166.564 51.6083M171.53 59.9726C167.351 59.9726 164.256 56.9109 164.256 52.8953C164.256 48.8796 167.378 45.8159 171.477 45.8159C175.575 45.8159 178.779 48.9834 178.672 53.4085H166.43C166.593 56.0098 168.681 58.0667 171.534 58.0667C174.387 58.0667 175.769 56.4447 176.34 55.3125H178.484C177.941 57.1656 175.823 59.9707 171.534 59.9707" fill="#231F20"/>
<path d="M182.907 59.665H180.763V46.1253H182.907V59.665ZM182.936 43.7571H180.736V41.3888H182.936V43.7571Z" fill="#231F20"/>
<path d="M187.659 59.6651H185.514V46.1254H187.659V48.3918C187.931 47.6455 189.179 45.8179 192.137 45.8179C196.129 45.8179 198.002 48.5975 198.002 52.0216V59.6651H195.831V52.0725C195.831 49.524 194.391 47.7493 191.786 47.7493C189.181 47.7493 187.659 49.5769 187.659 52.1763V59.667V59.6651Z" fill="#231F20"/>
<path d="M121.503 59.665H119.359V46.1253H121.503V59.665ZM121.532 43.7571H119.332V41.3888H121.532V43.7571Z" fill="#231F20"/>
<path d="M126.255 59.6651H124.11V46.1254H126.255V48.3918C126.527 47.6455 127.775 45.8179 130.734 45.8179C134.725 45.8179 136.599 48.5975 136.599 52.0216V59.6651H134.427V52.0725C134.427 49.524 132.987 47.7493 130.382 47.7493C127.777 47.7493 126.255 49.5769 126.255 52.1763V59.667V59.6651Z" fill="#231F20"/>
<path d="M64.4419 50.0392C64.4419 54.5427 67.8609 57.9158 72.3417 57.9158C76.521 57.9158 78.5848 55.4692 79.2355 54.2606H81.5989C80.9998 56.1137 78.1778 60.002 72.3417 60.002C66.5057 60.002 62 55.7787 62 50.0138C62 44.2488 66.5057 40.0255 72.3417 40.0255C78.1778 40.0255 80.9998 43.8335 81.6526 45.8159H79.2107C78.4773 44.5544 76.4404 42.1078 72.3438 42.1078C67.8629 42.1078 64.4439 45.4809 64.4439 50.0373" fill="#231F20"/>
<path d="M95.3079 52.8953C95.3079 49.9863 93.1346 47.7454 90.1783 47.7454C87.2221 47.7454 85.0199 49.9609 85.0199 52.8953C85.0199 55.8296 87.1931 58.0431 90.1783 58.0431C93.1635 58.0431 95.3079 55.8022 95.3079 52.8953ZM90.0957 59.9726C86.0239 59.9726 82.8218 56.9364 82.8218 52.8953C82.8218 48.8541 86.0239 45.8159 90.0957 45.8159C93.3246 45.8159 94.8451 47.7728 95.281 48.6739V46.1254H97.4254V59.6651H95.281V57.1166C94.8183 58.0431 93.3246 59.9726 90.0957 59.9726Z" fill="#231F20"/>
<path d="M102.175 40H100.03V59.665H102.175V40Z" fill="#231F20"/>
<path d="M110.698 57.5808L115.233 46.1254H117.592L112.056 59.665H109.341L103.805 46.1254H106.166L110.698 57.5808Z" fill="#231F20"/>
</g>
<defs>
<clipPath id="clip0_250_315">
<rect width="136" height="20" fill="white" transform="translate(62 40)"/>
</clipPath>
</defs>
</svg>
