<svg width="260" height="100" viewBox="0 0 260 100" fill="none" xmlns="http://www.w3.org/2000/svg">
<rect width="260" height="100" fill="white"/>
<g clip-path="url(#clip0_250_322)">
<path d="M156.742 47.0206C155.574 47.0206 154.627 46.049 154.627 44.8508C154.627 43.6526 155.574 42.681 156.742 42.681C157.911 42.681 158.858 43.6526 158.858 44.8508C158.858 46.049 157.911 47.0206 156.742 47.0206ZM156.742 57.2865C157.911 57.2865 158.858 56.315 158.858 55.1168C158.858 53.9185 157.911 52.947 156.742 52.947C155.574 52.947 154.627 53.9185 154.627 55.1168C154.627 56.315 155.574 57.2865 156.742 57.2865Z" fill="black"/>
<path d="M84.461 55.4946C84.461 58.6575 82.5561 60.9892 78.9147 60.9892C75.2733 60.9892 73 58.474 73 55.2139V44.7861C73 41.526 75.2522 39 78.9147 39C82.5772 39 84.461 41.3425 84.461 44.4946V47.053H81.0406V44.527C81.0406 43.2964 80.3671 42.4436 78.9778 42.4436C77.5886 42.4436 76.8835 43.2964 76.8835 44.4622V55.527C76.8835 56.6928 77.5886 57.5456 78.9778 57.5456C80.3671 57.5456 81.0406 56.6928 81.0406 55.4622V52.9362H84.461V55.4946ZM98.4164 55.2463C98.4164 58.5927 96.1957 61 92.5964 61C88.997 61 86.7764 58.5927 86.7764 55.2463V44.7537C86.7659 41.4289 89.0181 39.0324 92.5859 39.0324C96.1536 39.0324 98.4058 41.4396 98.4058 44.7537V55.2463H98.4164ZM94.5644 55.4946V44.4946C94.5644 43.264 93.8593 42.4436 92.5964 42.4436C91.3335 42.4436 90.6494 43.264 90.6494 44.4946V55.4946C90.6494 56.7252 91.3545 57.5456 92.5964 57.5456C93.8383 57.5456 94.5644 56.7252 94.5644 55.4946ZM111.572 42.9509V39.475H100.174V42.9509H103.963V60.525H107.815V42.9509H111.572ZM124.727 42.9509V39.475H113.329V42.9509H117.118V60.525H120.97V42.9509H124.727ZM138.125 55.2463C138.125 58.5927 135.904 61 132.305 61C128.705 61 126.485 58.5927 126.485 55.2463V44.7537C126.474 41.4289 128.727 39.0324 132.294 39.0324C135.862 39.0324 138.114 41.4396 138.114 44.7537V55.2463H138.125ZM134.273 55.4946V44.4946C134.273 43.264 133.568 42.4436 132.305 42.4436C131.042 42.4436 130.368 43.264 130.368 44.4946V55.4946C130.368 56.7252 131.073 57.5456 132.305 57.5456C133.536 57.5456 134.273 56.7252 134.273 55.4946ZM152.322 60.525V39.475H148.87V51.9647L147.513 48.6183L143.724 39.4858H140.43V60.5358H143.945V48.208L145.397 51.5545L149.375 60.5358H152.333L152.322 60.525ZM172.813 55.2463C172.813 58.5927 170.592 61 166.993 61C163.394 61 161.173 58.5927 161.173 55.2463V44.7537C161.173 41.4396 163.425 39.0324 166.993 39.0324C170.561 39.0324 172.813 41.4396 172.813 44.7537V55.2463ZM168.961 55.4946V44.4946C168.961 43.264 168.256 42.4436 166.993 42.4436C165.73 42.4436 165.057 43.264 165.057 44.4946V55.4946C165.057 56.7252 165.762 57.5456 166.993 57.5456C168.225 57.5456 168.961 56.7252 168.961 55.4946ZM187.011 60.525V39.475H183.559V51.9647L182.201 48.6183L178.412 39.4858H175.118V60.5358H178.633V48.208L180.085 51.5545L184.064 60.5358H187.021L187.011 60.525Z" fill="#ED223C"/>
</g>
<defs>
<clipPath id="clip0_250_322">
<rect width="114" height="22" fill="white" transform="translate(73 39)"/>
</clipPath>
</defs>
</svg>
