<svg width="260" height="100" viewBox="0 0 260 100" fill="none" xmlns="http://www.w3.org/2000/svg">
<rect width="260" height="100" fill="white"/>
<g clip-path="url(#clip0_250_314)">
<path d="M151.146 30.3858H144.05V31.0061H145.921V67.7456C145.876 68.5399 145.572 68.8198 144.425 68.8652H144.048V69.536H152.049V68.8652H151.207C149.864 68.8224 149.371 68.2802 149.353 67.1127V52.3362H151.679C155.066 52.3362 157 50.7022 157 48.5185V34.5237C157 32.34 155.333 30.3807 151.146 30.3858ZM153.595 49.2271C153.595 50.445 152.816 51.5747 151.305 51.5671H149.353V31.0061H151.134C152.816 31.0061 153.595 32.4383 153.595 33.5226V49.2271Z" fill="#122147"/>
<path d="M136.004 67.0775V67.1052L131.486 30.3757H128.456L124.06 66.7169C123.799 68.0332 123.666 68.825 121.599 68.8577V69.5335H126.939V68.8577C125.431 68.8577 124.744 67.9853 124.903 67.0548L126.68 52.306H130.834L132.7 67.544C132.7 68.4593 132.607 68.7897 131.503 68.8577H130.975V69.5335H138.094V68.8577H137.902C136.537 68.7947 136.084 67.955 136.004 67.0775ZM126.761 51.6151L128.632 35.8476L130.749 51.6151H126.761Z" fill="#122147"/>
<path d="M109.456 52.321H111.551V67.095C111.551 68.3735 110.583 69.3493 109.373 69.3493C108.164 69.3493 107.299 68.3508 107.299 67.095V33.7218C107.299 32.819 107.485 30.7009 109.019 30.716C110.289 30.7236 111.171 31.8835 111.581 33.6537C112.014 35.5071 112.278 39.9879 112.278 41.8615C112.278 42.507 112.514 42.7238 113.213 42.7238H114.548V30.3554H113.595V30.885C113.588 31.5129 113.193 31.4649 112.871 31.2683C111.709 30.5193 110.291 29.9898 109.024 29.9999C106.967 30.0125 104.005 30.9203 104 34.8817V63.9733C104.04 69.0341 106.713 69.9696 109.341 70.0024C111.39 70.01 112.371 69.0341 113.193 68.7013C113.63 68.5323 114.113 68.9383 114.113 69.6822H114.968V52.321H116.68V51.5998H109.456V52.321Z" fill="#122147"/>
</g>
<defs>
<clipPath id="clip0_250_314">
<rect width="53" height="40" fill="white" transform="translate(104 30)"/>
</clipPath>
</defs>
</svg>
