<svg width="260" height="100" viewBox="0 0 260 100" fill="none" xmlns="http://www.w3.org/2000/svg">
<rect width="260" height="100" fill="white"/>
<g clip-path="url(#clip0_250_313)">
<path d="M165.89 33.1109C165.89 33.7431 165.713 34.2079 165.356 34.503C165.002 34.7982 164.562 34.9725 164.034 35.026L166.05 38.1332H164.872L162.953 35.1073H161.791V38.1332H160.694V32H158.727C158.624 32.1859 158.526 32.3765 158.445 32.581C158.193 33.2039 158.065 33.8755 158.065 34.5937C158.065 35.3118 158.191 36.0183 158.445 36.6458C158.696 37.2733 159.048 37.8172 159.493 38.2773C159.938 38.7398 160.466 39.1001 161.074 39.365C161.682 39.6276 162.338 39.7578 163.046 39.7578C163.754 39.7578 164.397 39.6276 164.998 39.365C165.601 39.1024 166.125 38.7398 166.569 38.2773C167.014 37.8172 167.364 37.271 167.617 36.6458C167.869 36.0183 167.997 35.3327 167.997 34.5937C167.997 33.8546 167.869 33.2039 167.617 32.581C167.536 32.3788 167.438 32.1859 167.333 32H165.617C165.792 32.2975 165.883 32.667 165.883 33.1109H165.89Z" fill="#AA182C"/>
<path d="M117.007 44.0364C115.478 44.0364 114.67 45.2263 114.651 46.4488H119.564C119.564 45.0102 118.654 44.0364 117.007 44.0364Z" fill="#AA182C"/>
<path d="M161.796 34.2218H162.939C163.186 34.2218 163.421 34.2149 163.64 34.1986C163.861 34.1823 164.057 34.1382 164.229 34.0615C164.401 33.9871 164.539 33.8732 164.639 33.7152C164.741 33.5595 164.793 33.341 164.793 33.0621C164.793 32.8274 164.746 32.6391 164.655 32.4997C164.562 32.3602 164.446 32.2533 164.299 32.1766C164.155 32.1023 163.987 32.0511 163.798 32.0256C163.714 32.0139 163.635 32.0047 163.554 31.9977H161.791V34.2195L161.796 34.2218Z" fill="#AA182C"/>
<path d="M168.502 32C168.539 32.0767 168.581 32.1487 168.614 32.2278C168.935 32.9575 169.098 33.7454 169.098 34.5937C169.098 35.442 168.938 36.2647 168.614 37.0014C168.293 37.7335 167.857 38.3726 167.31 38.9141C166.76 39.458 166.12 39.8786 165.391 40.1784C164.66 40.4782 163.882 40.6293 163.051 40.6293C162.22 40.6293 161.442 40.4782 160.706 40.1784C159.97 39.8786 159.325 39.458 158.771 38.9141C158.217 38.3726 157.779 37.7335 157.458 37.0014C157.136 36.2647 156.973 35.4652 156.973 34.5937C156.973 33.7221 157.134 32.9575 157.458 32.2278C157.493 32.1487 157.532 32.0767 157.572 32H86L94.4621 68C112.227 56.5981 129.303 67.5561 129.99 67.9744L129.994 67.9721H130.003C130.003 67.9721 130.006 67.9721 130.008 67.9744H130.01C130.697 67.5561 147.771 56.5981 165.538 68L174 32H168.502ZM109.253 53.8557H97.6872V41.8309H102.887V50.5833H109.253V53.8557ZM124.811 48.8682H114.663C114.663 50.4323 115.99 51.6152 117.76 51.6152C118.812 51.6152 119.769 51.2666 120.447 50.3277H124.494C123.171 53.3606 120.605 54.2252 117.108 54.2252C112.558 54.2252 109.342 51.7663 109.342 47.8711C109.342 43.711 112.511 41.5171 117.108 41.5171C122.252 41.5171 124.829 44.8452 124.829 48.0454C124.829 48.3127 124.85 48.58 124.811 48.8682ZM134.225 53.8766H129.843L123.299 41.8239H129.205L132.958 49.1517L133.061 49.3725L133.154 49.1517L136.666 41.8239H140.212L134.223 53.8766H134.225ZM145.782 53.8533H140.766V41.8006H145.782V53.8533ZM149.55 43.3113L148.038 44.9521H147.41L148.104 43.1626H146.72V40.7781H149.552V43.3113H149.55ZM156.133 54.1973C150.775 54.1973 149.799 51.1063 149.799 50.3416H153.678C153.678 50.7902 154.288 51.3294 154.805 51.5502C155.229 51.7314 155.702 51.7663 156.144 51.7663C157.236 51.7663 158.133 51.5014 158.133 50.8692C158.133 50.0976 157.215 49.928 156.203 49.7815C153.448 49.3841 149.585 48.924 149.585 45.8469C149.585 42.9766 152.726 41.5171 156.058 41.5171C161.393 41.5171 162.809 44.4664 162.809 45.3216H158.864C158.864 45.066 158.669 44.5779 158.131 44.2967C157.732 44.0899 157.146 43.9202 156.577 43.9202C155.103 43.9202 154.274 44.227 154.274 44.8986C154.274 45.4495 155.022 45.7214 156.095 45.9073C158.897 46.3884 163.198 46.5534 163.198 49.9558C163.198 51.6826 161.698 54.1973 156.133 54.1973Z" fill="#AA182C"/>
</g>
<defs>
<clipPath id="clip0_250_313">
<rect width="88" height="36" fill="white" transform="translate(86 32)"/>
</clipPath>
</defs>
</svg>
