<svg width="260" height="100" viewBox="0 0 260 100" fill="none" xmlns="http://www.w3.org/2000/svg">
<rect width="260" height="100" fill="white"/>
<g clip-path="url(#clip0_250_312)">
<path d="M83.6494 49.4771L85.4138 52.3999L88.9538 46.4909V59.5722H92.0032V40.5411H88.8961L83.6494 49.4771Z" fill="black"/>
<path d="M75.0894 40.5411H72V59.5722H75.0628V46.4909L82.0072 58.1006L83.7783 55.1393L75.0894 40.5411Z" fill="black"/>
<path d="M110.36 53.6722L113.183 59.5722H116.865L107.63 40.5411H104.312L104.31 40.5525L108.935 50.6408H102.792L104.394 47.3512L102.721 43.7764L94.9419 59.5722H98.382L101.289 53.6722H110.36Z" fill="black"/>
<path d="M137.248 40.5411H134.185V49.7895L137.248 52.9976V40.5411Z" fill="black"/>
<path d="M122.473 40.5411H119.357V59.5722H122.42V45.3544L134.964 59.5722H137.248V57.2584L122.473 40.5411Z" fill="black"/>
<path d="M158.627 45.823C157.173 44.2405 154.927 43.2262 152.406 43.2262C148.378 43.2262 145.055 45.8139 144.525 49.1646H141.154C141.595 43.9643 146.685 40.1268 152.442 40.1268C155.871 40.1268 158.951 41.4603 161.022 43.6066L158.627 45.823Z" fill="black"/>
<path d="M152.122 56.9165C148.758 56.9165 145.899 55.0102 144.832 52.35H141.396C142.532 56.9369 147 60 152.311 60C153.547 60 154.959 59.8732 156.135 59.5653C158.8 58.8771 161.697 57.0704 161.697 54.2178V49.1624H152.082L152.073 52.35H158.623V53.7899C158.623 55.3928 156.341 56.3165 154.948 56.6448C154.193 56.8146 153.232 56.9188 152.451 56.9188H152.122V56.9165Z" fill="black"/>
<path d="M187 50.0792C187 44.4012 182.075 40 176.021 40C169.966 40 165.017 44.1997 165.017 49.7691C165.017 55.026 169.056 59.2325 174.505 59.9027V56.7218C170.941 56.1127 168.246 53.3258 168.246 49.9819C168.246 46.1875 171.709 43.1017 175.979 43.1017C180.249 43.1017 183.711 46.1897 183.711 49.9819C183.711 53.3009 181.061 56.0629 177.539 56.7082V59.8936C182.766 59.2302 186.998 55.1777 186.998 50.0792" fill="black"/>
</g>
<defs>
<clipPath id="clip0_250_312">
<rect width="115" height="20" fill="white" transform="translate(72 40)"/>
</clipPath>
</defs>
</svg>
