<svg width="260" height="100" viewBox="0 0 260 100" fill="none" xmlns="http://www.w3.org/2000/svg">
<rect width="260" height="100" fill="white"/>
<g clip-path="url(#clip0_250_329)">
<path d="M98.8249 60.4664V60.1128H100.794V38.2716H98.8249V37.918H108.235C113.449 37.918 116.265 40.3936 116.265 43.8156C116.265 47.2375 113.639 49.3977 108.264 49.3977H104.324V60.1128H107.341V60.4664H98.8154H98.8249ZM104.334 49.0345H107.426C110.966 49.0345 112.536 47.6007 112.536 43.6913C112.536 40.623 111.128 38.2716 107.721 38.2716H104.343V49.0345H104.334Z" fill="#00295C"/>
<path d="M130.157 37.4019C135.105 37.4019 139.605 42.0282 139.605 49.197C139.605 56.3659 135.114 60.9922 130.157 60.9922C125.2 60.9922 120.718 56.3659 120.718 49.197C120.718 42.0282 125.209 37.4019 130.157 37.4019ZM130.157 60.6385C133.801 60.6385 135.533 57.7423 135.533 49.2066C135.533 40.6709 133.801 37.7651 130.157 37.7651C126.513 37.7651 124.781 40.6709 124.781 49.2066C124.781 57.7423 126.522 60.6385 130.157 60.6385Z" fill="#00295C"/>
<path d="M150.261 60.1129H155.114C157.274 60.1129 157.902 59.3577 159.871 51.4051H160.594V60.4665H144.752V60.1129H146.722V38.2813H144.752V37.9276H153.544V38.2813H150.261V60.1129Z" fill="#00295C"/>
<path d="M175.561 37.4019C180.509 37.4019 185 42.0282 185 49.197C185 56.3659 180.509 60.9922 175.561 60.9922C170.614 60.9922 166.113 56.3659 166.113 49.197C166.113 42.0282 170.604 37.4019 175.561 37.4019ZM175.561 60.6385C179.196 60.6385 180.937 57.7423 180.937 49.2066C180.937 40.6709 179.196 37.7651 175.561 37.7651C171.927 37.7651 170.176 40.6709 170.176 49.2066C170.176 57.7423 171.917 60.6385 175.561 60.6385Z" fill="#00295C"/>
<path d="M101.813 65.2266H102.631C103.611 65.2266 103.925 65.8575 103.925 66.4501C103.925 67.2817 103.411 67.7692 102.345 67.7692H101.813V65.217V65.2266ZM102.488 70.8757V70.6845H101.813V67.903H101.851L104.125 70.8661H105.542V70.6749H105.105L102.983 67.8934C104.267 67.817 104.943 67.253 104.943 66.431C104.943 65.695 104.42 65.0259 102.916 65.0259H100.319V65.2075H100.852V70.6749H100.319V70.8661H102.498L102.488 70.8757Z" fill="#00295C"/>
<path d="M109.776 65.8766H109.795L110.642 68.3427H108.882L109.776 65.8766ZM108.901 70.8757V70.6846H108.045L108.825 68.5243H110.709L111.441 70.6846H110.785V70.8757H112.764V70.6846H112.402L110.442 64.9781H109.871L107.807 70.6846H107.293V70.8757H108.92H108.901Z" fill="#00295C"/>
<path d="M116.589 70.6846H117.902C118.492 70.6846 118.663 70.5795 119.196 68.5244H119.396V70.8662H115.086V70.6751H115.619V65.2076H115.086V65.026H117.474V65.2076H116.58V70.6751L116.589 70.6846Z" fill="#00295C"/>
<path d="M123.716 65.2267H124.639C125.562 65.2267 125.952 65.7715 125.952 66.5649C125.952 67.5781 125.524 67.8553 124.563 67.8553H123.716V65.2267ZM124.544 70.8758V70.6846H123.716V68.0273H124.791C126.256 68.0273 126.97 67.4347 126.97 66.5553C126.97 65.6759 126.209 65.0355 124.781 65.0355H122.212V65.2171H122.745V70.6846H122.212V70.8758H124.534H124.544Z" fill="#00295C"/>
<path d="M130.861 67.9413V70.6846H131.451V70.8757H129.358V70.6846H129.9V65.2267H129.358V65.045H131.451V65.2267H130.861V67.7597H133.221V65.2267H132.64V65.045H134.724V65.2267H134.191V70.6846H134.724V70.8757H132.631V70.6846H133.221V67.9413H130.861Z" fill="#00295C"/>
<path d="M144.334 70.6846H145.657C146.247 70.6846 146.418 70.5795 146.951 68.5244H147.151V70.8662H142.84V70.6751H143.373V65.2076H142.84V65.026H145.229V65.2076H144.334V70.6751V70.6846Z" fill="#00295C"/>
<path d="M151.794 65.8766H151.813L152.659 68.3427H150.899L151.794 65.8766ZM150.918 70.8757V70.6846H150.062L150.833 68.5243H152.717L153.449 70.6846H152.783V70.8757H154.762V70.6846H154.401L152.441 64.9781H151.87L149.796 70.6846H149.282V70.8757H150.909H150.918Z" fill="#00295C"/>
<path d="M159.139 65.045V65.2267H158.492V69.4611C158.492 70.4838 159.11 70.8184 159.672 70.8184C160.518 70.8184 161.118 70.2831 161.118 69.4037V65.2267H160.309V65.045H161.898V65.2267H161.356V69.4133C161.356 70.3882 160.671 71 159.624 71C158.178 71 157.512 70.4265 157.512 69.2699V65.2267H156.979V65.045H159.12H159.139Z" fill="#00295C"/>
<path d="M165.913 65.2267H166.732C167.712 65.2267 168.026 65.8576 168.026 66.4502C168.026 67.2818 167.502 67.7693 166.446 67.7693H165.923V65.2172L165.913 65.2267ZM166.589 70.8758V70.6846H165.913V67.9031H165.952L168.216 70.8662H169.634V70.6751H169.196L167.074 67.8935C168.359 67.8171 169.034 67.2531 169.034 66.4311C169.034 65.6951 168.511 65.026 167.008 65.026H164.41V65.2076H164.943V70.6751H164.41V70.8662H166.589V70.8758Z" fill="#00295C"/>
<path d="M171.708 70.8758V70.6846H172.241V65.2171H171.708V65.0355H176.237V66.909H176.037C175.561 65.3318 175.409 65.2171 174.972 65.2171H173.202V67.7501H173.896C174.344 67.7501 174.553 67.4921 174.734 66.584H174.934V69.0979H174.734C174.553 68.1994 174.344 67.9317 173.896 67.9317H173.202V70.675H174.772C175.409 70.675 175.6 70.4456 176.123 68.706H176.332V70.8662H171.708V70.8758Z" fill="#00295C"/>
<path d="M179.871 65.3987H179.852V70.6846H180.604V70.8757H179.015V70.6846H179.605V65.2267H179.015V65.045H180.728L183.354 69.2508H183.373V65.2267H182.659V65.045H184.21V65.2267H183.62V70.8757H183.316L179.871 65.3987Z" fill="#00295C"/>
<mask id="mask0_250_329" style="mask-type:luminance" maskUnits="userSpaceOnUse" x="75" y="29" width="19" height="42">
<path d="M93.097 29H75V70.6463H93.097V29Z" fill="white"/>
</mask>
<g mask="url(#mask0_250_329)">
<path d="M85.9514 58.507C85.9419 58.4497 85.9324 58.4019 85.9134 58.3732C85.8372 58.1725 85.7992 58.0482 85.8087 58.0196L85.9229 57.685V57.36C85.9229 57.3027 86.0561 57.1019 86.1607 56.9586L85.7897 56.8725L85.5803 57.0733C85.5803 57.0733 85.5233 57.188 85.5328 57.3122C85.5328 57.3983 85.5328 57.4652 85.4947 57.4747L85.3139 57.513C85.2568 57.5225 85.2188 57.5608 85.2188 57.6085C85.2188 57.6372 85.2188 57.6659 85.2283 57.685L85.371 57.9909L85.5423 58.5166H85.9514V58.507ZM83.449 58.507C83.449 58.507 83.449 58.4497 83.449 58.421C83.449 58.3254 83.4871 58.2394 83.5347 58.1534C83.5918 58.0387 83.6108 58.0291 83.6298 58.0291C83.7345 58.0387 83.7916 58.2107 83.763 58.4306C83.763 58.4593 83.763 58.4879 83.763 58.5166H85.0856L85.0475 58.421C85.0475 58.421 85.0475 58.3446 85.0475 58.2681C85.0665 58.1725 85.0475 58.0769 85.0095 58.01L84.8477 57.7615C84.8477 57.7615 84.8096 57.6755 84.8096 57.6468C84.8096 57.6277 84.8287 57.599 84.8477 57.5799L84.5623 57.4365L84.4481 57.5321L84.3244 57.8188C84.3244 57.8188 84.2578 57.8762 84.1912 57.8762C84.1246 57.8762 84.077 57.8188 84.077 57.7615C84.077 57.7424 84.0865 57.7137 84.1056 57.685L84.2388 57.3887L83.8677 57.3027C83.8011 57.5416 83.6869 57.6468 83.4966 57.6468L83.2587 57.9527C83.2587 57.9527 83.0589 57.9909 82.9257 58.0865C82.8401 58.1534 82.8211 58.2585 82.8211 58.3159L82.8496 58.507H83.4395H83.449ZM82.0313 58.507L81.8506 58.2681L81.5651 57.8188L81.5461 57.4938C81.5461 57.3791 81.4985 57.2453 81.4414 57.0924C81.3273 56.8247 81.2987 56.7292 81.3082 56.6527C81.3082 56.624 81.3273 56.6145 81.3463 56.6145C81.3748 56.6145 81.4129 56.6336 81.4509 56.6718C81.4985 56.71 81.5271 56.7292 81.5556 56.777L81.9362 56.6909C81.9362 56.6909 81.8601 56.6145 81.841 56.5476C81.822 56.4711 81.8125 56.4137 81.822 56.3277C81.8506 55.9932 82.0313 55.7064 82.1836 55.7255C82.2502 55.7255 82.2882 55.802 82.2787 55.888C82.2787 55.9645 82.2312 56.0314 82.1741 56.0983C82.1265 56.1461 82.0884 56.1939 82.0884 56.2226V56.4329C82.0694 56.5762 82.0218 56.7005 81.9267 56.6909L81.5461 56.777C81.5746 56.8247 81.6032 56.9108 81.6127 56.9681C81.6698 57.2358 81.7078 57.3887 81.7364 57.4269L81.8886 57.6659L81.9362 57.8857L82.136 58.1916L82.431 58.4975H82.6213C82.6213 58.4975 82.5832 58.3923 82.5547 58.3159C82.5451 58.2872 82.5356 58.249 82.5451 58.2107C82.5642 58.0578 82.6593 57.924 82.802 57.8762L83.1541 57.7424C83.3824 57.6563 83.5061 57.5225 83.5252 57.3218L83.5442 57.0924C83.5442 57.0924 83.5918 57.0159 83.6869 56.9395C83.7725 56.863 83.8106 56.7865 83.8011 56.7196L83.7535 56.3946C83.7535 56.3946 83.7535 56.3182 83.7535 56.2799C83.7725 56.0792 83.8772 55.888 84.0485 55.7446C84.1056 55.6968 84.1436 55.6682 84.1436 55.6682C84.1626 55.6682 84.1817 55.7064 84.1912 55.7446C84.2007 55.7924 84.2102 55.8498 84.2007 55.8976C84.2007 55.9549 84.1817 56.0123 84.1626 56.0601L84.0199 56.4042C83.9914 56.4806 83.9628 56.6718 83.9248 56.9872C83.9153 57.1115 83.8962 57.2166 83.8772 57.3027L84.2388 57.3887L84.3244 57.188L84.4861 56.9586C84.4861 56.9012 84.4861 56.8343 84.4861 56.777C84.5052 56.5953 84.5623 56.5093 84.6479 56.5189C84.7621 56.5284 84.8096 56.6623 84.7906 56.9108C84.7906 56.9777 84.7716 57.0542 84.743 57.1211C84.6955 57.2644 84.6574 57.3505 84.6384 57.3696L84.5623 57.4461L84.8572 57.599C84.8572 57.599 84.9048 57.5512 84.9429 57.5225C85.2378 57.2931 85.4471 57.0733 85.5518 56.8725C85.6374 56.7196 85.685 56.624 85.704 56.5953C85.7231 56.5571 85.7706 56.5284 85.7992 56.5284C85.8563 56.5284 85.8848 56.5762 85.8753 56.6527C85.8753 56.6718 85.8753 56.7005 85.8563 56.71L85.7897 56.8917L86.1417 57.0064C86.2369 56.8821 86.2559 56.8152 86.2749 56.6909C86.2749 56.6049 86.2749 56.5093 86.2464 56.4233L86.0561 55.8402C85.999 55.6682 85.9419 55.5535 85.9134 55.5535C85.8087 55.5439 85.7231 55.5917 85.7135 55.6586V56.2226C85.685 56.3755 85.5803 56.4615 85.4091 56.4424C85.3805 56.4424 85.3615 56.4233 85.3615 56.4137C85.3615 56.3946 85.4186 56.3086 85.5233 56.1461C85.5423 56.1079 85.5613 56.0601 85.5708 56.0123C85.5994 55.7638 85.4852 55.4388 85.3139 55.2667L84.8192 54.7697L84.1722 53.8903L84.0294 53.6035L84.0675 53.508L84.0104 53.2212L83.4776 53.2594L83.449 53.4506L83.5061 53.594L83.4871 53.919L83.449 54.1388L83.3634 54.3013V54.502L83.1826 54.7506L83.0114 54.8366L82.9352 54.9991C82.8782 55.1042 82.802 55.1711 82.7259 55.1616L82.6783 55.0851L82.4785 55.2476L82.5356 55.3241L82.4595 55.4292C82.4595 55.4292 82.4214 55.4579 82.3834 55.4483C82.3168 55.4483 82.2882 55.4101 82.2978 55.3527C82.2978 55.2763 82.3834 55.2094 82.4595 55.2189L82.4976 55.2667L82.6974 55.1042L82.6593 54.9895L82.6974 54.9226L82.9257 54.6263L83.0209 54.4351L83.2017 54.2535L83.2207 54.0815L83.2873 53.8807L83.2397 53.766L83.3158 53.2977C83.3253 53.2212 83.3539 53.1638 83.3824 53.1638C83.4395 53.1638 83.4871 53.183 83.4871 53.2021V53.269L84.0199 53.2308L83.9914 53.0683L83.9438 52.4852L83.5347 51.6632C83.5061 51.6154 83.5061 51.5198 83.5347 51.386V51.2904C83.5727 51.0323 83.5727 50.8029 83.392 50.6117L83.2017 50.822C83.2017 50.822 83.2587 50.908 83.2492 51.0323C83.2492 51.1088 83.2302 51.1948 83.2017 51.2904C83.1636 51.4242 83.1351 51.5198 83.1065 51.5485L82.9352 51.7301L82.6688 52.1889L82.3358 52.4756L81.822 52.7528C81.7649 52.7815 81.7174 52.8484 81.6698 52.944L81.5175 53.269L81.175 53.5749C81.0704 53.6609 81.0513 53.7087 80.8991 54.0528C80.8135 54.244 80.6993 54.3682 80.6041 54.3587C80.5851 54.3587 80.5375 54.33 80.5185 54.3109L80.3282 54.5307C80.4424 54.5116 80.509 54.655 80.509 54.655C80.509 54.6645 80.4804 54.7314 80.4233 54.8557C80.4043 54.9131 80.3567 54.9417 80.3187 54.9417C80.3187 54.9417 80.3187 54.9417 80.3092 54.9417L80.2616 55.0947C80.2616 55.0947 80.3092 55.0947 80.3187 55.0947C80.3187 55.0947 80.3377 55.0947 80.3377 55.1042L80.4043 55.2189C80.4043 55.2189 80.3758 55.2763 80.3663 55.3527C80.3567 55.4388 80.2997 55.5057 80.2331 55.5057L80.2901 55.7924C80.2901 55.7924 80.3377 55.7924 80.3567 55.7924C80.4043 55.7924 80.4424 55.8115 80.4709 55.8402C80.528 55.8976 80.5661 55.9836 80.5566 56.0696C80.5566 56.1557 80.4995 56.1939 80.4043 56.1843C80.3377 56.1843 80.2806 56.127 80.2521 56.0601H79.9857C80.0428 56.2704 80.1189 56.3946 80.2045 56.4329L80.3282 56.4902L80.6802 57.5512L80.9371 57.7997L81.2036 58.3063L81.4034 58.5357H82.0599L82.0313 58.507ZM85.5423 58.507V58.5453L85.5994 58.746L85.4947 59.0232L85.4757 59.1953C85.4757 59.4629 85.39 59.6923 85.2568 59.8261C85.1331 59.9504 85.0665 60.0364 85.0665 60.0842V60.2658L84.9238 60.4761L84.8382 60.6673L84.7621 60.6099C84.7621 60.6099 84.743 60.5334 84.7621 60.4761L84.8572 60.2849C84.8572 60.2849 84.8858 60.1989 84.8763 60.1224C84.8763 59.9313 84.8858 59.7879 84.9238 59.7114L85.0285 59.482L85.0856 58.8798L85.1236 58.6122L85.0761 58.507H83.7535C83.725 58.7364 83.6964 58.8798 83.6679 58.9467C83.6013 59.0806 83.5918 59.1475 83.5918 59.157C83.5918 59.1953 83.6108 59.3386 83.6774 59.568C83.7155 59.6732 83.7155 59.9217 83.6964 60.2945C83.6869 60.4665 83.6964 60.7151 83.7155 61.0209C83.7535 61.4415 83.763 61.7474 83.7345 61.9577C83.7059 62.254 83.6013 62.579 83.4205 62.9039C83.3253 63.0856 83.3158 63.0951 83.3063 63.2003C83.2778 63.4966 83.43 63.9841 83.6393 64.2804L83.8487 64.5767L83.8867 64.7105L83.7916 64.7296C83.7916 64.7296 83.725 64.787 83.725 64.8443C83.7155 64.9495 83.8106 65.0928 83.9343 65.1502C84.058 65.2075 84.1246 65.2458 84.1341 65.2553C84.1912 65.284 84.2197 65.3318 84.2197 65.3796V65.5899C84.2197 65.5899 84.2768 65.6759 84.391 65.7237C84.4861 65.7715 84.6574 65.934 84.8667 66.2016C84.9714 66.3259 85.0761 66.3928 85.1902 66.4024C85.3044 66.4119 85.333 66.3737 85.3996 66.1443L85.4947 65.8193L85.4471 65.609L85.1807 65.3605L84.9333 65.1311C84.9333 65.1311 84.8572 65.0833 84.8192 65.0737C84.7716 65.0737 84.7145 65.0928 84.6764 65.1311L84.5432 65.2936L84.4766 65.2075C84.4386 65.1502 84.5147 65.0259 84.6479 64.9208C84.743 64.8443 84.8001 64.7774 84.8096 64.7296C84.8096 64.6627 84.743 64.5958 84.6384 64.5862H84.4386V64.3951L84.6194 64.0701C84.705 63.9076 84.686 63.6686 84.5623 63.4392C84.4671 63.2672 84.4195 63.1429 84.4291 63.0951L84.5052 62.5981L84.2578 62.4929L84.2292 62.8753L84.1056 63.0282H83.9343L83.7345 63.0473C83.6869 63.0473 83.6584 62.9995 83.6679 62.9613C83.6679 62.8753 83.7155 62.7988 83.763 62.8084L83.9248 62.8275L84.039 62.6937L84.1531 62.2349C84.1531 62.2349 84.1817 62.1775 84.2197 62.1775C84.2673 62.1775 84.3054 62.1966 84.2959 62.254L84.2673 62.5121L84.5147 62.6076L84.5623 62.0532L84.7526 61.604L84.8192 61.2503C84.8192 61.2025 84.8953 61.0878 85.0095 60.9158C85.0761 60.8202 85.1427 60.6864 85.2188 60.5048C85.371 60.132 85.4662 59.9026 85.5137 59.8166C85.8182 59.2622 85.9895 58.9372 85.999 58.8034C86.0085 58.6982 85.9895 58.6504 85.9609 58.5166V58.4975H85.5518L85.5423 58.507ZM82.45 58.507L82.5737 58.6409L82.6498 58.5548C82.6498 58.5548 82.6498 58.5357 82.6498 58.5166H82.4595L82.45 58.507ZM82.8686 58.507L82.9352 59.0232C82.9352 59.0232 82.9352 59.0519 82.9352 59.0614C82.9352 59.1188 82.9067 59.1475 82.8686 59.1475C82.8116 59.1475 82.7164 59.0901 82.5927 58.985L82.0504 58.5262H81.3939L81.4319 58.574L81.6698 58.9467L82.3834 59.2813L82.6308 59.4533L83.0209 59.568L83.3253 59.7496L83.4586 59.6636V59.3386L83.5252 59.1953L83.4586 58.574C83.4586 58.574 83.4586 58.5548 83.4586 58.5453H82.8686V58.507ZM79.2816 53.1734L79.7763 54.6072C79.8239 54.7506 79.8525 54.827 79.8525 54.827C79.8525 54.8461 79.8525 54.9322 79.8429 55.0755C79.8429 55.1329 79.8715 55.3527 79.9381 55.7446C79.9571 55.8498 79.9571 55.9167 79.9857 56.0218H80.2521C80.2235 55.974 80.214 55.9358 80.2235 55.8689C80.2235 55.8116 80.2235 55.7733 80.2997 55.7638L80.2521 55.4866C80.195 55.4866 80.1379 55.3432 80.1569 55.1711C80.1569 55.1233 80.1855 55.0564 80.2806 55.0755L80.3187 54.9322C80.2426 54.9226 80.214 54.827 80.2235 54.7506C80.2235 54.6836 80.2331 54.5881 80.3567 54.4829L80.5185 54.3109C80.5185 54.3109 80.49 54.2535 80.49 54.2057C80.49 54.1484 80.5185 54.091 80.5661 54.0623L80.823 53.8234L80.9371 53.6131L81.0323 53.5462L81.0799 53.3168L81.1845 53.1447L81.5651 52.8675C81.5651 52.8675 81.6603 52.7719 81.7459 52.6477C81.8791 52.4565 81.9838 52.3705 82.2692 52.2176C82.431 52.1315 82.5261 52.0455 82.5451 51.969L82.6022 51.7683C82.6022 51.7683 82.6593 51.6727 82.7354 51.5867C82.8116 51.5102 82.8686 51.4051 82.9162 51.2999C83.097 50.8507 83.097 50.7742 83.1826 50.822L83.3634 50.6117C83.3634 50.6117 83.2587 50.5639 83.2207 50.5257L82.7354 50.0287L82.5356 50C82.4214 49.9809 82.3073 49.9331 82.2121 49.8279L82.0694 49.914C82.0694 49.914 82.1265 49.9522 82.1455 49.9809C82.3168 50.1816 82.4214 50.5066 82.4024 50.7742L82.3834 51.0897V51.1661C82.3358 51.5485 82.2787 51.7014 82.1741 51.6918C82.0979 51.6918 82.0694 51.5771 82.0789 51.4051C82.0789 51.3573 82.0884 51.3191 82.1075 51.2713L82.2216 50.9176L82.1836 50.7169C82.1455 50.497 82.0599 50.2963 81.9362 50.1434C81.8791 50.0669 81.841 50.0095 81.8506 49.9713C81.8506 49.914 81.9172 49.8757 81.9743 49.8853C82.0028 49.8853 82.0409 49.9044 82.0694 49.9235L82.2121 49.8375C82.0504 49.6654 81.8981 49.3596 81.803 48.9963L81.5746 49.0633C81.6222 49.1875 81.6888 49.3213 81.7554 49.436C81.784 49.4934 81.803 49.5412 81.7935 49.5794C81.7935 49.6176 81.7554 49.6559 81.7078 49.6559H81.6983C81.6983 49.6559 81.6317 49.6368 81.6222 49.6081L81.5556 49.3787L81.4319 49.1206C81.4319 49.1206 81.3939 49.0059 81.3463 48.8721C81.3177 48.7956 81.2797 48.7 81.2321 48.5758C81.2036 48.5184 81.194 48.4611 81.194 48.4228C81.194 48.375 81.2321 48.3559 81.2797 48.3559C81.3463 48.3559 81.4319 48.5184 81.4605 48.7096C81.4795 48.7956 81.5175 48.939 81.5746 49.0824L81.803 49.0346L81.6032 48.4897C81.508 48.2221 81.3558 48.0309 81.5175 48.0214C81.5556 48.0214 81.6793 48.0787 81.6698 48.0405V47.6295L81.6032 47.6582C81.5175 47.6964 81.3939 47.6868 81.3653 47.6104C81.3463 47.5626 81.3368 47.5148 81.3177 47.4288C81.2416 47.056 81.194 46.8457 81.156 46.6545H80.8325C80.8325 46.6545 80.8515 46.7501 80.842 46.8075C80.823 46.9986 80.8135 47.0273 80.7754 47.0273C80.6898 47.0273 80.6612 46.9699 80.6422 46.817L80.6136 46.5685C80.6136 46.5685 80.6136 46.5494 80.6136 46.5303C80.6136 46.4825 80.6422 46.4538 80.6612 46.4538C80.6898 46.4538 80.7278 46.4825 80.7564 46.5207C80.7849 46.5589 80.8135 46.6163 80.823 46.6641H81.1465C81.1179 46.5111 81.0799 46.3391 81.0608 46.3009L80.6707 44.9244H80.6327V45.6509V45.7273L80.3758 44.609L80.1474 44.7333C80.1474 44.7333 80.1569 44.7811 80.1569 44.8097C80.1379 45.0296 80.0047 45.4119 79.8429 45.7082L79.6907 45.995L79.5099 46.3391C79.4433 46.4729 79.3292 46.5494 79.234 46.5398C79.215 46.5398 79.1959 46.5398 79.1769 46.5016L78.9771 46.6545L78.9961 46.7119C78.9961 46.7119 78.9961 46.7405 78.9961 46.7501C78.9866 46.8648 78.8439 46.9508 78.7107 46.9413C78.6726 46.9604 78.6251 46.9604 78.5775 46.9604C78.5585 46.9604 78.5394 46.9413 78.5299 46.9317L78.2445 47.0464C78.3111 47.3045 78.3967 47.706 78.4823 48.2508C78.5965 48.9103 78.6726 49.3978 78.7392 49.7228C78.8439 50.2963 79.0057 50.7169 79.215 50.9272C79.3958 51.1088 79.4814 51.2617 79.4719 51.3669C79.4719 51.4242 79.4433 51.4529 79.4053 51.4529C79.3292 51.4529 79.1864 51.3191 79.0913 51.1661L78.9105 50.8889C78.8724 50.8316 78.8249 50.7838 78.7868 50.7838C78.7583 50.7838 78.7297 50.7933 78.7297 50.8125L78.6822 51.3286L78.606 51.5867L78.6536 51.8639L79.2055 53.0491L79.253 53.2021L79.6146 53.0396L79.5956 52.6477C79.5956 52.5903 79.5765 52.5425 79.5575 52.5043C79.5385 52.4756 79.5004 52.4278 79.4243 52.3418C79.3101 52.208 79.253 52.0551 79.2721 51.9117C79.2721 51.8257 79.3292 51.7587 79.3862 51.7683C79.5004 51.7779 79.6527 52.0264 79.7859 52.3896C79.8049 52.4374 79.8049 52.4852 79.8049 52.533V52.5712C79.8049 52.5712 79.7859 52.6095 79.7478 52.6955L79.6146 53.0396L79.253 53.183L79.2816 53.1734ZM79.8905 44.0259L79.9286 44.1884L79.8905 44.4847C79.8905 44.5516 79.8239 44.609 79.7383 44.5899L79.6527 44.6472C79.6527 44.6472 79.7763 44.6855 79.6717 44.8671L79.6431 44.9244L79.3767 45.2972L79.1293 45.7178C79.0818 45.8038 78.9771 45.8612 78.8915 45.8516L78.7297 45.995C78.7297 45.995 78.7583 46.0332 78.7583 46.0619C78.7583 46.1097 78.7012 46.2148 78.5965 46.3582C78.4823 46.5207 78.3586 46.5972 78.2445 46.578C78.2254 46.578 78.2064 46.578 78.1969 46.5589L78.1113 46.6736C78.1684 46.7119 78.235 46.8457 78.292 47.0751L78.587 46.9604C78.587 46.9604 78.568 46.9413 78.568 46.9222C78.568 46.8839 78.9105 46.3964 79.0342 46.6736L79.2245 46.5207C79.2245 46.5207 79.2055 46.4729 79.2055 46.4538C79.2055 46.3964 79.2435 46.3295 79.3006 46.2626C79.4528 46.081 79.548 45.9281 79.6051 45.8134L79.8334 45.3068L80.0142 44.9818L80.0618 44.7428C80.0618 44.7428 80.0998 44.7046 80.1474 44.7046C80.1665 44.7046 80.195 44.7237 80.2045 44.7428L80.4329 44.6186L80.3092 44.0355L80.2711 43.8539L79.9096 44.0164L79.8905 44.0259ZM79.5575 43.959C79.5575 43.959 79.5861 44.0355 79.5765 44.0737C79.5765 44.112 79.5575 44.1502 79.529 44.1789C79.4243 44.284 79.4053 44.3605 79.3292 44.3222L79.1674 44.6472C79.1674 44.6472 79.215 44.7141 79.2055 44.7619C79.2055 44.8193 79.1769 44.8766 79.1389 44.9244C79.0723 45.0105 78.9771 45.0774 78.9105 45.0774L78.7963 45.3354C78.7963 45.3354 78.8249 45.3641 78.8154 45.3928L78.4823 45.8994L78.2159 46.0714C78.2159 46.0714 78.2064 46.0714 78.1969 46.0714C78.1779 46.0714 78.1684 46.0714 78.1588 46.0523L78.0256 46.2435C78.0256 46.2435 78.0447 46.2626 78.0447 46.2817C78.0447 46.3104 78.0066 46.3582 77.94 46.4156L77.7687 46.5685L77.7116 46.6163L77.7687 46.7788C77.9495 46.6736 78.0256 46.645 78.0637 46.645C78.0732 46.645 78.1018 46.6545 78.1113 46.6641L78.1874 46.5398C78.1874 46.5398 78.1684 46.5207 78.1684 46.5016C78.1684 46.4729 78.2064 46.406 78.273 46.32L78.4538 46.1288C78.5585 46.0141 78.568 45.9854 78.5965 45.9663C78.6251 45.9376 78.6441 45.9472 78.6631 45.9472C78.6917 45.9472 78.7202 45.9663 78.7392 45.9759L78.8915 45.8325C78.8915 45.8325 78.8439 45.8134 78.8439 45.8038C78.8439 45.7847 78.8629 45.756 78.901 45.7273C79.0057 45.6222 79.1008 45.4788 79.1864 45.3068C79.2911 45.106 79.3862 44.9149 79.4719 44.7524C79.5194 44.6664 79.567 44.5994 79.6527 44.6281L79.7478 44.5803C79.6907 44.5803 79.6527 44.5039 79.6622 44.4083C79.6622 44.3222 79.7002 44.2458 79.7573 44.1789L79.881 44.0164L80.2426 43.8539L80.2616 43.7774L79.9476 43.0223L79.7002 43.1083C79.7002 43.1083 79.6717 43.2135 79.6051 43.2135L79.6907 43.4811C79.6907 43.4811 79.7668 43.4524 79.7954 43.4524C79.8715 43.4524 79.9191 43.5289 79.9096 43.6149V43.634C79.881 43.7105 79.8239 43.7679 79.7668 43.7679C79.7573 43.7679 79.7193 43.7583 79.6812 43.7392L79.5575 43.9399V43.959ZM78.2254 44.9149C78.2254 44.9149 78.3016 44.9627 78.3301 45.0009C78.3586 45.0391 78.3682 45.0774 78.3682 45.0869C78.3682 45.0869 78.292 45.1156 78.1779 45.1347C78.1208 45.1443 78.0637 45.1921 78.0066 45.2685L77.8068 45.5362C77.7878 45.4788 77.7878 45.4501 77.7782 45.4215L77.5404 45.4979C77.5594 45.5648 77.5689 45.6318 77.5689 45.6604C77.5689 45.7751 77.5689 45.8612 77.5689 45.8803L77.6165 45.9759L77.5975 46.2626C77.5975 46.2626 77.6355 46.3104 77.6831 46.3104C77.7021 46.3104 77.7307 46.3104 77.7497 46.3009C77.8734 46.2435 77.9305 46.2148 77.959 46.2148C77.9781 46.2148 77.9971 46.2339 78.0161 46.2435L78.1493 46.0428C78.1493 46.0428 78.1208 45.995 78.1208 45.9663C78.1208 45.909 78.1493 45.8612 78.1874 45.8134L78.3967 45.6031C78.5489 45.4406 78.606 45.4119 78.6346 45.3928C78.7012 45.3354 78.7583 45.3163 78.7868 45.3259L78.901 45.0678C78.901 45.0678 78.8154 45.0296 78.901 44.934L78.9866 44.7811C79.0437 44.6855 79.1008 44.6281 79.1293 44.6281C79.1389 44.6281 79.1579 44.6281 79.1674 44.6472L79.3196 44.3222C79.3196 44.3222 79.3006 44.284 79.2911 44.2649C79.2911 44.2553 79.2911 44.2362 79.2911 44.2267C79.2911 44.2171 79.2911 44.198 79.2911 44.1884C79.3577 44.0355 79.4338 43.9495 79.4719 43.9399C79.5004 43.9399 79.5194 43.9399 79.5385 43.959L79.6717 43.7583C79.6717 43.7583 79.6336 43.7392 79.6146 43.7296C79.5765 43.7105 79.5575 43.6723 79.5575 43.6436C79.5575 43.5862 79.6051 43.5289 79.6812 43.4907L79.5861 43.2326C79.5194 43.2326 79.4814 43.1848 79.4909 43.1179C79.4909 43.0605 79.548 43.0127 79.5956 43.0223C79.6527 43.0223 79.6907 43.0892 79.6907 43.137L79.9381 43.0605C79.9286 43.0127 79.9191 42.9649 79.9286 42.9171C79.9381 42.7929 80.0428 42.6304 80.2235 42.4679C80.2045 42.4201 80.1855 42.3819 80.176 42.3532C80.1379 42.2481 80.1094 42.2194 80.0713 42.2098C79.9762 42.2098 79.8239 42.2958 79.7288 42.4105L79.4814 42.7069C79.4243 42.7738 79.3387 42.8216 79.2626 42.812C79.1959 42.812 79.0818 42.7355 78.6822 42.4297H78.6631C78.587 42.3628 78.273 42.1525 78.2635 42.0378L78.0066 42.315C78.0066 42.315 78.0447 42.3914 78.0161 42.4392L77.9876 42.4679C77.9876 42.4679 77.959 42.5061 77.9115 42.5539L77.9781 42.64C77.9781 42.64 78.0351 42.6017 78.0827 42.6017C78.1113 42.6017 78.1398 42.6113 78.1588 42.6208L78.9581 43.0032L79.2626 43.1943C79.2626 43.1943 79.2626 43.2039 79.2626 43.223C79.2626 43.2708 79.2245 43.2995 79.1864 43.2899C79.1484 43.2899 79.0818 43.2517 79.0152 43.1943C78.9295 43.1274 78.8249 43.0701 78.6917 43.0319L78.0732 42.8407C77.9971 42.8216 77.94 42.7547 77.94 42.6973C77.94 42.6686 77.9495 42.6495 77.9685 42.6304L77.9019 42.5444C77.9019 42.5444 77.8544 42.6017 77.8258 42.6304C77.7497 42.726 77.6641 42.7929 77.5784 42.8311C77.1788 43.0032 76.8839 43.3664 76.7792 43.5289C76.6079 43.7679 76.5128 43.9973 76.4652 44.198V44.2171C76.4652 44.2745 76.4652 44.3414 76.5128 44.3796L76.8553 44.5516L77.3596 45.1443C77.4357 45.2399 77.5023 45.3832 77.5214 45.5266L77.7592 45.4501C77.7592 45.4501 77.7592 45.4119 77.7592 45.4024C77.7592 45.4024 77.7973 45.2972 77.8639 45.106C77.9115 44.9627 77.9971 44.8862 78.1018 44.8958C78.1398 44.8958 78.1874 44.9149 78.2159 44.9244L78.3586 44.4943L78.2635 44.4083L78.1874 44.284C78.1493 44.2267 78.1303 44.1884 78.1303 44.1789V44.1598C78.1303 44.1598 78.1684 44.0546 78.235 43.9973C78.3206 43.9208 78.3872 43.8826 78.4253 43.8826C78.4253 43.8826 78.4823 43.8539 78.5585 43.9017C78.6917 43.9781 78.8439 43.9495 78.8439 43.959L78.7963 44.1024V44.3414C78.7678 44.4943 78.5299 44.609 78.3396 44.4847L78.1969 44.9149H78.2254ZM78.7012 42.315C78.7012 42.315 78.7773 42.3532 78.8249 42.3628C78.9961 42.3819 79.1959 42.0856 79.2435 41.7319C79.2626 41.6076 79.2435 41.5598 79.1579 41.5503C79.0818 41.5503 78.9771 41.5981 78.92 41.6745L78.7107 41.9422C78.6155 42.0569 78.5965 42.0951 78.5965 42.1142C78.5965 42.1334 78.5965 42.162 78.606 42.1907C78.6251 42.2481 78.6631 42.2958 78.7107 42.3245L78.7012 42.315ZM89.3101 58.6026C89.3482 58.5357 89.4053 58.4879 89.4719 58.4975L89.6717 58.5262C89.6717 58.5262 89.7478 58.4879 89.8239 58.4115C89.8715 58.3637 89.9096 58.335 89.9476 58.3445C89.9762 58.3445 89.9952 58.3923 89.9952 58.4593V58.4975C89.9666 58.6695 89.8334 58.7556 89.548 58.7747C89.4909 58.7747 89.4433 58.7747 89.3862 58.7747C89.3196 58.7747 89.2911 58.746 89.2911 58.7078C89.2911 58.6791 89.3006 58.6504 89.3196 58.6217H89.1008C89.1008 58.6217 89.1008 58.6695 89.1008 58.6982C89.1008 58.7556 89.0818 58.7747 89.0437 58.7747C89.0247 58.7747 88.9961 58.7651 88.9676 58.746C89.3387 59.3577 89.4528 59.7305 89.3958 60.1607C89.3672 60.3614 89.3196 60.4856 89.2721 60.4856L89.1769 60.5048L89.1484 60.6386L89.234 60.9062L89.1864 61.2312L89.1103 61.4319L89.0818 61.7569L89.0532 62.1966L89.1008 62.5885V62.8944C89.0818 63.0186 89.1389 63.1047 89.215 63.1142C89.253 63.1142 89.3101 63.1142 89.3862 63.1142C89.4053 63.1142 89.4338 63.1142 89.4528 63.1142C89.5385 63.1238 89.5861 63.1907 89.5765 63.2767C89.5765 63.315 89.548 63.3532 89.5194 63.3914C89.4528 63.4679 89.3577 63.5253 89.2435 63.5539C89.1389 63.5826 89.0818 63.6017 89.0723 63.6017C89.0723 63.6017 89.0532 63.6017 89.0342 63.573L88.9961 63.7164L88.9295 63.9076C88.9295 63.9076 88.9295 64.0127 88.9581 64.1274C88.9771 64.1943 88.9581 64.4429 88.9105 64.8348L88.882 65.0259C88.8629 65.1789 88.8058 65.3318 88.7297 65.4752C88.5775 65.7428 88.4919 65.9149 88.4919 65.9913V66.4215V66.6796L88.587 66.8994V67.1192L88.4823 67.4156C88.4728 67.5111 88.5204 67.645 88.6346 67.7692C88.7012 67.8552 88.7963 67.9126 88.8915 67.9317L89.215 67.9126C89.3482 67.9126 89.4433 67.8457 89.4528 67.7597C89.4528 67.731 89.4528 67.7023 89.4338 67.6736L89.1769 67.3104C89.1008 67.2053 89.0723 67.1001 89.0913 66.9854C89.1103 66.8612 89.1674 66.7369 89.253 66.6413C89.3292 66.5553 89.3767 66.4788 89.3672 66.4406L89.3196 66.2685C89.3196 66.2685 89.3387 66.1538 89.4148 66.0296C89.4624 65.9435 89.4909 65.7237 89.5004 65.3796C89.5004 65.2745 89.5385 65.045 89.6051 64.7009L89.9381 62.9326L89.9857 62.837L90.195 62.5216C90.2331 62.4643 90.2616 62.3973 90.2711 62.3113C90.2711 62.2731 90.2711 62.2349 90.2711 62.1966C90.2521 61.9577 90.2331 61.8716 90.176 61.8716C90.1284 61.8716 90.0903 61.8812 90.0618 61.9194L89.9286 62.0915L89.9 62.1202L89.7763 61.843L89.5575 61.2886L89.6336 60.5717V60.2754C89.6527 60.2085 89.7383 60.1893 89.7763 60.2467C89.7954 60.2658 89.8049 60.3232 89.8049 60.3996L89.8334 60.7151L89.7859 60.9731L89.881 61.2121L89.9286 61.4797C89.9286 61.4797 89.9762 61.5466 90.0237 61.5562C90.0903 61.5562 90.1855 61.4224 90.2045 61.2694L90.3092 60.5621L90.4424 60.2849V59.8739L90.5946 59.5011C90.6232 59.4342 90.6422 59.2239 90.6517 58.8798C90.6612 58.6026 90.7278 58.2872 90.8515 57.9431L91.5461 55.974C91.6127 55.7924 91.6603 55.5917 91.6888 55.3719C91.8315 54.2726 91.5461 53.1256 90.6993 52.1602C89.4148 50.6882 88.9295 50.3632 88.2445 50.2581C87.8829 50.2007 87.6355 50.1529 87.5214 50.086C87.4643 50.0573 87.4262 50.0382 87.3977 50.0382C87.3691 50.0382 87.3596 50.0478 87.3596 50.0765C87.3501 50.172 87.4262 50.325 87.607 50.5448C87.7307 50.7073 87.8068 50.8889 87.8068 51.061V51.2808L87.9305 51.6727L87.7878 52.2367L87.7021 52.4374L87.6165 52.4852L87.5594 52.6477L87.274 52.858V52.9536L87.3596 53.0587L87.293 53.1256L87.4452 53.2785V53.508L87.5118 54.2153L87.3977 54.416L87.2264 54.4925C87.2264 54.4925 87.1598 54.5594 87.1503 54.6167C87.1408 54.7123 87.2264 54.9322 87.3501 55.1042C87.5689 55.4197 87.7402 55.7446 87.8449 56.0792C87.921 56.3086 87.9685 56.4615 87.9971 56.538C88.0256 56.6145 88.0732 56.6718 88.1208 56.6814C88.1969 56.6909 88.273 56.6336 88.3016 56.5476L88.4062 56.1174C88.4062 56.1174 88.4633 55.9932 88.5109 55.8593C88.6346 55.5248 88.6726 55.1807 88.5394 54.9513C88.4157 54.7314 88.3586 54.5594 88.3777 54.5116L88.4823 54.33L88.5109 54.1101V53.7756L88.4823 53.4888C88.4823 53.4219 88.5299 53.3646 88.587 53.355H88.606C88.6917 53.355 88.7297 53.508 88.7678 53.8999C88.7773 54.0719 88.8534 54.2248 88.9676 54.3109L89.1389 54.4542L89.2245 55.1042L89.253 55.563L89.1389 56.0314L88.9771 56.2417C88.9771 56.2417 88.9581 56.3564 88.9771 56.4902C88.9866 56.6049 88.9486 56.7196 88.882 56.7961L88.7773 56.9108L88.6726 57.1402L88.5585 57.3505C88.4823 57.9527 88.5585 58.1534 88.939 58.421C89.0342 58.4879 89.0818 58.5453 89.0913 58.6122H89.3101V58.6026ZM87.1217 59.5107L87.2169 60.1224C87.274 60.4761 87.312 60.5334 87.4738 60.5526C87.645 60.5717 87.7973 60.4761 87.959 60.2562C88.2445 59.8357 88.5204 59.2144 88.568 58.8798C88.5775 58.7651 88.568 58.6791 88.5489 58.6026L88.4062 58.1725L88.254 57.513L88.1493 57.4652L88.0256 57.599L87.9115 57.6468C87.9115 57.6468 87.8544 57.6946 87.8449 57.7519C87.8449 57.8284 87.9019 57.9527 88.0351 58.1151C88.0922 58.1916 88.1303 58.2681 88.1208 58.3254C88.1208 58.3732 88.0732 58.4019 88.0161 58.4019C87.9685 58.4019 87.9305 58.3732 87.9019 58.3254L87.626 57.9622C87.626 57.9622 87.5499 57.8953 87.5023 57.8953C87.4452 57.8953 87.3691 57.924 87.274 57.9813C86.9885 58.1725 86.9219 58.2394 86.9124 58.3159V58.335L87.0456 58.9563H87.4547C87.3977 58.8989 87.3786 58.8034 87.3881 58.6409C87.3881 58.6217 87.3881 58.5835 87.3881 58.5166C87.3881 58.4879 87.3881 58.4497 87.3881 58.421C87.4072 58.3063 87.4452 58.2681 87.5309 58.2776C87.5689 58.2776 87.607 58.3063 87.6831 58.3732C87.9115 58.5644 88.0066 58.7269 87.9876 58.8607C87.9685 58.985 87.8449 59.0806 87.7212 59.0614C87.5975 59.0423 87.4928 59.0423 87.4452 58.9372L87.0456 58.9181V59.1857L87.1217 59.5202L87.5118 59.4725C87.5118 59.4725 87.4928 59.4342 87.4928 59.4055C87.4928 59.3769 87.5214 59.3386 87.5689 59.31C87.5975 59.2908 87.6355 59.2813 87.6831 59.2908C87.7497 59.3004 87.8068 59.3291 87.8068 59.3577C87.8068 59.3864 87.7687 59.4247 87.7212 59.4725C87.6831 59.5011 87.6355 59.5107 87.588 59.5107C87.5594 59.5107 87.5309 59.5107 87.5118 59.4629L87.1312 59.5202L87.1217 59.5107ZM91.5841 51.3477L91.9647 51.5293L92.3548 51.797C92.431 51.8543 92.5166 51.883 92.6117 51.8926C92.8591 51.9212 93.0494 51.7492 93.078 51.4624C93.1065 51.2617 93.0018 51.0323 92.8496 50.9845L92.5451 50.8794C92.5451 50.8794 92.45 50.7933 92.3548 50.6595C92.2026 50.4492 91.8981 50.3345 91.5461 50.3632L91.0989 50.4014C90.9657 50.411 90.9181 50.4588 90.9086 50.5257C90.9086 50.5639 90.9086 50.6022 90.9086 50.6404C90.9276 50.7551 90.9752 50.8411 91.0323 50.9463C91.0989 51.0705 91.1465 51.1279 91.2131 51.1661L91.6222 51.3573L91.7364 51.0897C91.7364 51.0897 91.5556 51.0227 91.5175 51.0132C91.4414 50.9941 91.3748 50.9654 91.3843 50.9463C91.3843 50.9272 91.4129 50.8889 91.4509 50.8316C91.489 50.7742 91.508 50.7169 91.489 50.6882L91.4319 50.6022H91.6412L91.8601 50.6978V50.8316L92.0123 50.9845L92.0409 50.9463C92.0409 50.9463 92.0694 50.9272 92.0979 50.9272C92.1265 50.9272 92.155 50.9463 92.155 50.9654C92.155 50.9654 92.155 51.0036 92.155 51.061C92.155 51.1088 92.2312 51.1661 92.3358 51.2044C92.5166 51.2617 92.6308 51.3764 92.6213 51.4624C92.6213 51.5007 92.5927 51.5293 92.5642 51.5198L92.4024 51.472L92.2121 51.4146L91.9457 51.1661C91.841 51.1183 91.8125 51.1088 91.7269 51.0801L91.5937 51.3477H91.5841ZM81.4414 39.543C81.4414 39.543 81.4795 39.5239 81.489 39.5239C81.508 39.5239 81.5556 39.5717 81.5366 39.629C81.489 39.868 81.4129 39.8584 81.4129 39.8584L81.3653 40.0878C81.6412 40.0687 81.4985 40.3746 81.3939 40.5084L81.3273 40.4797C81.2131 40.2503 81.2511 40.0878 81.3368 40.0878C81.3463 40.0878 81.3653 40.0878 81.3748 40.0878L81.4129 39.8584C81.4129 39.8584 81.3748 39.8298 81.3558 39.7724C81.3558 39.7437 81.3558 39.7151 81.3558 39.6864C81.3558 39.6386 81.3748 39.6004 81.4034 39.5717C81.4129 39.5621 81.4319 39.5334 81.4509 39.5334L81.3558 39.3423L81.2702 39.3996C81.2702 39.3996 81.175 39.4283 81.0989 39.4187C80.8991 39.3901 80.6993 39.2562 80.5661 39.0746C80.49 38.9599 80.4614 38.8452 80.4709 38.721C80.4804 38.6254 80.5185 38.5489 80.5661 38.5202L80.7944 38.3769C80.8515 38.3386 80.8896 38.2813 80.8991 38.2048C80.9086 38.1092 80.8801 38.0423 80.7944 38.0328C80.7278 38.0328 80.6517 38.0519 80.5851 38.0997C80.5756 38.1092 80.5375 38.1283 80.528 38.1283L79.881 38.4055C79.881 38.4055 79.8429 38.4151 79.8144 38.4055C79.7573 38.4055 79.7193 38.3577 79.7288 38.2908C79.7288 38.2908 79.7288 38.2717 79.7383 38.2622C79.7573 38.2335 79.8049 38.1953 79.862 38.157C80.0523 38.0423 80.2331 37.9754 80.4043 37.9276C80.5756 37.8798 80.7278 37.8225 80.7373 37.746C80.7373 37.6887 80.7183 37.6409 80.6707 37.6409C80.6327 37.6409 80.5566 37.6504 80.4519 37.6887C80.4043 37.7078 80.3567 37.7078 80.3092 37.7078C80.2616 37.7078 80.214 37.6791 80.195 37.6504L80.0237 37.6982C80.0237 37.6982 80.0428 37.746 80.0332 37.7651C80.0332 37.8129 79.9666 37.8511 79.9191 37.8703C79.8525 37.8989 79.6527 38.0232 79.6051 37.9372C79.529 37.8225 79.7478 37.7747 79.7763 37.7651L79.8905 37.66C79.8905 37.66 79.9191 37.6504 79.9381 37.66C79.9857 37.66 80.0142 37.6887 80.0332 37.7269L80.195 37.6695C80.195 37.6695 80.1665 37.6217 80.176 37.6026C80.176 37.5835 80.2045 37.5453 80.2521 37.4975C80.2901 37.4497 80.3187 37.4115 80.3187 37.3732C80.3282 37.2776 80.0618 37.1438 79.7573 37.1056C79.5194 37.0769 79.3101 37.1056 79.1008 37.2107C78.6155 37.4497 78.2159 37.8703 78.1779 38.2048C78.1684 38.3195 78.1779 38.3673 78.2445 38.6636C78.273 38.7879 78.273 38.893 78.2445 38.9504L78.1493 39.1798C78.1493 39.2467 78.1779 39.2945 78.2254 39.2945C78.3111 39.304 78.4253 39.2276 78.5489 39.0746C78.6251 38.9791 78.6822 38.9217 78.7202 38.9026L78.9961 38.7496L79.3196 38.4916C79.3196 38.4916 79.3767 38.4629 79.4053 38.4629C79.4338 38.4629 79.4528 38.4916 79.4433 38.5202C79.4433 38.568 79.4148 38.5967 79.3862 38.6158L79.1769 38.7783L79.2626 38.9217C79.2626 38.9217 79.3101 38.8643 79.3672 38.8739C79.4719 38.8835 79.4909 39.046 79.4719 39.218C79.4719 39.2467 79.4528 39.2658 79.4433 39.2658L79.3101 39.2467L79.1769 39.304L79.1579 39.218C79.1674 39.1415 79.2055 39.132 79.234 39.0555C79.253 39.0077 79.253 38.9599 79.2626 38.9313L79.1769 38.7879L78.8629 39.0364C78.7297 39.1798 78.882 39.3709 78.7297 39.4474C78.6631 39.4761 78.5775 39.3709 78.5775 39.3709L78.4919 39.3232L78.4348 39.304C78.3967 39.4665 78.3016 39.5526 78.2159 39.543L78.0351 39.4474C77.8163 39.4187 77.5214 39.6386 77.2454 40.0114C77.1503 40.1452 77.0646 40.3364 77.0551 40.4415C77.0361 40.5562 77.0646 40.6709 77.1312 40.7665C77.2074 40.8621 77.2454 40.9481 77.2264 40.9768L77.0932 41.1584C77.0932 41.1584 77.0932 41.1871 77.1027 41.2157C77.1027 41.2253 77.1027 41.2444 77.1027 41.2635C77.1027 41.2826 77.1027 41.3018 77.0837 41.3113C77.0361 41.3878 76.9695 41.426 76.9029 41.4165L76.6936 41.3878C76.6365 41.3878 76.5889 41.4356 76.5794 41.5025C76.5699 41.5981 76.627 41.7128 76.7126 41.7892L76.9219 41.7032C76.9219 41.7032 76.9029 41.6554 76.9219 41.6363L77.0742 41.4929H77.1788L77.1122 41.6841L76.9695 41.7223C76.9695 41.7223 76.9219 41.7128 76.9124 41.6937L76.7031 41.7892L77.2359 42.2576L77.3881 42.4105C77.3881 42.4105 77.4262 42.4392 77.4547 42.4392C77.5214 42.4392 77.607 42.4392 77.6831 42.3914C77.7592 42.3341 77.8829 42.0473 77.9685 42.3341C77.9971 42.4297 78.0447 42.162 78.2159 42.0473L78.1684 41.9039L77.7402 41.4929C77.4928 41.2253 77.4072 40.9481 77.4547 40.5849C77.5118 40.1261 77.8449 39.7724 78.1779 39.8011C78.235 39.8011 78.273 39.8011 78.2825 39.8011L78.3301 39.7533C78.3301 39.7533 78.3777 39.7246 78.3967 39.7246C78.4253 39.7246 78.4348 39.7533 78.4253 39.782C78.4253 39.8202 78.3967 39.8489 78.3586 39.8871C78.4538 39.8871 78.5299 39.8871 78.5775 39.868C78.6726 39.8202 78.7297 39.8011 78.7488 39.8011C78.7773 39.8011 78.7963 39.8298 78.8154 39.8584L78.8915 40.0018C78.8915 40.0018 78.9961 40.0878 79.1103 40.1165C79.215 40.1452 79.2816 40.1834 79.3101 40.2312L79.4433 40.5084C79.4814 40.5849 79.5385 40.6422 79.6146 40.6518C79.7573 40.6709 79.9666 40.5562 80.0618 40.4033L80.2331 40.1356C80.2711 40.0878 80.3377 40.0496 80.3948 40.0592C80.4424 40.0592 80.4614 40.0783 80.4519 40.107C80.4519 40.1261 80.4329 40.1739 80.3948 40.2312C80.3472 40.2981 80.3282 40.3937 80.3282 40.4989V40.7187C80.3282 40.8143 80.4424 40.9959 80.6612 41.2444C80.7754 41.3782 80.842 41.5312 80.842 41.6745C80.842 41.751 80.861 41.7892 80.8801 41.7892C80.9371 41.7892 80.9847 41.7606 81.0037 41.7128L81.0608 41.4451L81.194 41.2922L81.1179 41.2157C81.1179 41.2157 81.1084 41.1871 81.1084 41.1679C81.1084 41.1297 81.137 41.1106 81.175 41.1106C81.2036 41.1106 81.2321 41.1106 81.2511 41.1297H81.2797C81.2797 41.1297 81.3939 41.1297 81.489 41.0819C81.7459 40.9672 81.8791 40.8238 81.8981 40.6327C81.8981 40.5944 81.8981 40.4893 81.8981 40.4033C81.8981 40.4033 81.822 40.0209 81.9362 40.0209C82.0599 40.0209 82.0028 40.0209 82.0028 40.0209L81.9647 39.8393C81.8601 39.868 81.841 39.7628 81.822 39.7342C81.8125 39.7151 81.7935 39.6481 81.784 39.5526C81.7649 39.3901 81.6603 39.2658 81.5175 39.2467C81.4795 39.2467 81.4414 39.2467 81.4129 39.2658L81.2797 39.3518L81.3653 39.5526L81.4414 39.543ZM80.9562 43.0796C80.9562 43.0796 81.0037 43.1752 80.9942 43.2326C80.9752 43.3568 80.8705 43.4429 80.7564 43.4333C80.7183 43.4333 80.6517 43.3664 80.6898 43.2135C80.7469 43.0892 80.8135 43.0414 80.8896 43.051C80.9086 43.051 80.9371 43.0701 80.9562 43.0892L81.0608 42.9171C80.9942 42.9171 80.9752 42.8885 80.9752 42.8598C80.9752 42.8311 80.9942 42.812 81.0133 42.8024C81.0133 42.8024 81.156 42.8024 81.4034 42.8024C81.4795 42.8024 81.5651 42.7547 81.6412 42.6782C81.7078 42.6113 81.7554 42.573 81.7744 42.573C81.8506 42.573 81.8886 42.8216 81.8506 43.0796L81.8315 43.1848V43.2708C81.803 43.4046 81.803 43.5098 81.8315 43.5576C81.8315 43.5576 81.9172 43.6532 82.0884 43.8348C82.1455 43.9017 82.2026 43.9973 82.2026 44.0355C82.2026 44.0642 82.155 44.0737 82.0979 44.0737H82.0789L81.784 43.9877L81.6317 44.1024L81.5651 44.2745C81.5366 44.3509 81.4605 44.3987 81.3748 44.4178C81.2511 44.4369 81.194 44.4465 81.1845 44.4561C81.1655 44.4656 81.1465 44.4943 81.137 44.5325C81.137 44.5994 81.175 44.695 81.2892 44.848C81.4795 45.0965 81.5271 45.1347 81.6888 45.1538C81.7078 45.1538 81.7269 45.1538 81.7459 45.1538H81.9933C81.9933 45.1538 82.0313 45.1538 82.0504 45.1538C82.1265 45.1538 82.1931 45.1825 82.2312 45.2207L82.45 45.0105C82.45 45.0105 82.4214 44.9627 82.4214 44.934C82.4214 44.8671 82.488 44.8097 82.5927 44.7715C82.7259 44.7141 82.8306 44.6377 82.8782 44.5612C82.9352 44.4561 82.9543 44.4083 82.9828 44.3987C83.0018 44.3892 83.0589 44.3796 83.1351 44.3987H83.1541H83.1921C83.4871 44.4369 83.7916 44.3987 83.9914 44.284C84.1912 44.1789 84.2673 44.1502 84.3149 44.1502C84.3625 44.1502 84.3815 44.1884 84.372 44.2362C84.372 44.2458 84.372 44.2649 84.3625 44.2745L84.1436 44.609L84.039 44.7906C84.039 44.7906 83.9724 44.8575 83.9343 44.848C83.8867 44.848 83.8106 44.8097 83.6964 44.7619C83.6584 44.7428 83.6203 44.7333 83.5822 44.7237C83.4776 44.7141 83.3253 44.7237 83.1446 44.7524C82.9448 44.7906 82.8211 44.8193 82.764 44.8575C82.6593 44.934 82.5927 44.9818 82.5451 44.9913L82.4976 45.0296C82.4976 45.0296 82.469 45.0391 82.45 45.0296L82.2312 45.2399C82.2312 45.2399 82.2882 45.3354 82.2787 45.3832C82.2692 45.4597 82.1931 45.5171 82.0218 45.5553C81.7554 45.6222 81.6127 45.7751 81.5746 46.0332C81.5461 46.2148 81.6032 46.3582 81.7078 46.3773C81.7744 46.3773 81.8315 46.3678 81.8886 46.3295L82.2121 46.0714L82.5832 45.8803L82.8496 45.67L83.1921 45.4979L83.6393 45.431L84.3244 45.2877C84.4005 45.2685 84.5052 45.259 84.6384 45.259C84.8382 45.259 84.9238 45.2112 84.9429 45.1156C84.9429 45.0774 84.9429 45.0391 84.9238 45.0009L84.7335 44.6377C84.6764 44.523 84.6764 44.3796 84.7335 44.2362C84.7906 44.0928 84.8001 43.9877 84.7716 43.959L84.5908 43.7583C84.5908 43.7583 84.5432 43.634 84.5527 43.548C84.5527 43.4811 84.5813 43.4237 84.6194 43.3664C84.724 43.223 84.7716 43.1274 84.7811 43.0988C84.7811 43.051 84.743 43.0032 84.6764 42.9745C84.6574 42.9745 84.6479 42.9649 84.6289 42.9649C84.4576 42.9458 84.3149 43.0701 84.2863 43.2517L84.2578 43.4811C84.2483 43.5767 84.1626 43.634 84.0675 43.6245C84.0294 43.6245 83.9914 43.6054 83.9533 43.5767L83.7821 43.4333C83.392 43.3855 82.9162 43.6054 82.764 43.9112C82.7259 43.9973 82.6783 44.045 82.6403 44.0355C82.5927 44.0355 82.5451 43.9781 82.5166 43.9017L82.4119 43.634L82.2312 43.3186C82.2312 43.3186 82.1741 43.1466 82.136 42.9171L82.0789 42.6304C82.0789 42.6304 82.0789 42.5826 82.0789 42.5539C82.0884 42.4679 82.1265 42.4201 82.1741 42.4297L82.3834 42.4583L82.6783 42.3436L82.9828 42.1047L83.2207 41.99C83.3063 41.9422 83.3634 41.8848 83.3729 41.8275C83.3729 41.7892 83.3539 41.7415 83.3158 41.7032C83.2778 41.665 83.2302 41.6363 83.1826 41.6268C83.1636 41.6268 83.1541 41.6268 83.1351 41.6268L83.0209 41.6554L82.9733 41.4547L82.9257 41.1966L82.8116 41.0055C82.8116 41.0055 82.7925 40.9481 82.7925 40.9099C82.7925 40.8716 82.8211 40.843 82.8401 40.8525C82.8591 40.8525 82.8877 40.8716 82.9162 40.9003L83.0209 41.101C83.0684 41.1871 83.2112 41.2826 83.4395 41.3687C83.4871 41.3878 83.5347 41.3973 83.5727 41.4069C83.6488 41.4069 83.7059 41.3973 83.7345 41.3496L83.9628 40.9959C84.0294 40.8907 84.1531 40.8334 84.41 40.7952C84.5528 40.776 84.6194 40.7283 84.6289 40.6422C84.6479 40.4893 84.4576 40.3172 84.1626 40.193C83.9533 40.107 83.7725 40.0209 83.6488 39.9253L83.1255 39.5526L82.4976 39.3709C82.3834 39.3327 82.3168 39.3232 82.3073 39.3136H82.2882C82.1645 39.2945 82.0504 39.3709 82.0409 39.4761C82.0409 39.4857 82.0409 39.4952 82.0409 39.5143L82.0694 39.6864C82.0694 39.7724 82.0694 39.8106 82.0218 39.8489C81.9743 39.8871 81.7554 39.8106 81.8696 40.0305L81.9267 40.0496C82.1836 39.9636 82.155 40.5753 82.1265 40.8238C82.0789 41.1775 81.9552 41.3878 81.7935 41.3687C81.7554 41.3687 81.7269 41.3496 81.6888 41.34C81.6222 41.3113 81.5841 41.2922 81.5651 41.2922C81.4224 41.2731 81.3748 41.3782 81.3082 41.8848C81.2702 42.1716 81.1655 42.2958 80.9942 42.2767C80.9657 42.2767 80.9371 42.2767 80.9181 42.2576C80.7944 42.2194 80.7183 42.1907 80.7088 42.1716L80.5566 41.9709C80.5566 41.9709 80.5375 41.9517 80.528 41.9517C80.4043 41.9326 80.2806 42.1238 80.2426 42.3628C80.2426 42.3914 80.2426 42.4201 80.2426 42.4392C80.2426 42.4679 80.2426 42.5061 80.2426 42.5348C80.2426 42.5444 80.2426 42.5539 80.2235 42.5539C80.2235 42.5539 80.1855 42.4966 80.1855 42.4583L79.9952 42.6782C79.9952 42.6782 79.9762 42.7164 80.0523 42.7738C80.1284 42.8311 80.0142 43.0223 80.0808 43.1274L80.1855 43.2326C80.2711 43.3186 80.3377 43.4907 80.3853 43.7392C80.4329 44.0068 80.5185 44.1406 80.6422 44.1502L81.0133 44.1024L81.3177 44.0642C81.3177 44.0642 81.3843 44.0068 81.4795 43.9112C81.5841 43.8061 81.6508 43.6818 81.6603 43.5958C81.6793 43.4811 81.6317 43.3282 81.5366 43.1657C81.47 43.051 81.3558 42.9745 81.2321 42.9554H81.0799C81.0799 42.9554 81.0323 42.9363 81.0133 42.9267L80.9276 43.0988L80.9562 43.0796ZM85.7611 49.7706L85.6374 50.0669C85.5994 50.1625 85.5233 50.2198 85.4471 50.2103C85.4186 50.2103 85.4091 50.1912 85.4091 50.1625C85.4091 50.1242 85.4471 50.0573 85.5042 49.9713C85.5328 49.9235 85.5803 49.8279 85.6469 49.675C85.6755 49.6176 85.7135 49.5699 85.7421 49.5794C85.7992 49.5794 85.8372 49.6176 85.8277 49.6463L85.7516 49.7897L86.313 49.8566C86.3415 49.7419 86.351 49.6846 86.3701 49.5699C86.4462 48.9581 86.3986 48.7478 86.1798 48.7191C86.1512 48.7191 86.1227 48.7191 86.1227 48.7287L86.0466 49.1206C86.0466 49.1684 85.9895 49.2066 85.9324 49.1971C85.8848 49.1971 85.8658 49.0919 85.8848 48.9486C85.8943 48.8625 85.9229 48.7669 85.9609 48.6809C86.018 48.5662 86.0466 48.4515 86.0561 48.3464C86.0846 48.1648 86.0371 48.0501 85.9324 48.0405C85.8943 48.0405 85.8468 48.0692 85.8087 48.1265L85.7611 48.203L85.7421 48.0214L85.7897 47.7824V47.7537C85.8087 47.6677 85.7897 47.5721 85.7516 47.4861C85.6945 47.3618 85.6184 47.2758 85.5613 47.2663C85.4757 47.2567 85.4186 47.3427 85.3996 47.5052C85.3805 47.6199 85.3805 47.7537 85.3996 47.8971C85.3996 47.9162 85.3996 47.9354 85.3996 47.9545C85.3805 48.0787 85.3139 48.1648 85.2473 48.1552C85.2188 48.1552 85.1998 48.1361 85.1998 48.1265L85.2568 47.2854C85.2568 47.1516 85.1807 47.0464 85.057 47.0273C84.9999 47.0273 84.9333 47.0273 84.8763 47.056C84.6955 47.142 84.5908 47.1993 84.5813 47.2089L84.4576 47.4288C84.4195 47.4957 84.3434 47.5243 84.2673 47.5148C84.2007 47.5148 84.1722 47.4288 84.1817 47.3236C84.1912 47.2089 84.2673 47.1229 84.372 47.0846L85.2759 46.7883C85.2759 46.7883 85.3425 46.731 85.352 46.6736C85.3615 46.5685 85.2664 46.4729 85.1331 46.4538C84.8572 46.4156 84.7906 46.3869 84.8001 46.2913C84.8001 46.2722 84.8096 46.2531 84.8287 46.2339L84.9238 46.1384C84.9238 46.1384 84.9714 46.0428 84.9809 45.9472C85.0095 45.7082 84.9048 45.5266 84.7145 45.5075H84.6764L84.4576 45.5457L84.1246 45.5935L83.8582 45.6891L83.4776 45.7369L83.0875 45.8898L82.7545 45.9185L82.6022 46.0237C82.6022 46.0237 82.469 46.1479 82.45 46.2244C82.431 46.2817 82.4119 46.3295 82.3548 46.4347C82.3073 46.5111 82.1741 46.4729 82.0694 46.6258C81.9743 46.7788 81.9743 46.8744 81.9552 46.9222L81.8886 47.1038L81.7649 47.467C81.7269 47.5912 81.6793 47.6199 81.5461 47.639L81.5746 47.9736L81.6412 47.9927C81.8506 48.0501 81.8981 48.0978 81.9457 48.3177C82.0028 48.5853 82.0599 48.7478 82.0979 48.7956C82.1836 48.9103 82.2312 48.9868 82.2312 49.0155V49.2258C82.2312 49.2735 82.2502 49.3309 82.2692 49.3978C82.3453 49.5985 82.5832 49.7993 82.7735 49.8279C82.8782 49.8375 82.9352 49.8279 82.9352 49.761C82.9352 49.7228 82.9352 49.675 82.9067 49.6463L82.7259 49.3978C82.7259 49.3978 82.6974 49.3309 82.6974 49.2831C82.7164 49.1588 82.802 49.0728 82.9638 49.0155L83.0494 48.9868V49.1015C83.0494 49.1015 83.0209 49.1588 82.9828 49.2066C82.9448 49.264 82.9257 49.3022 82.9162 49.3213C82.9162 49.3309 82.9352 49.3882 82.9828 49.4838L83.0875 49.7228C83.0875 49.7228 83.1351 49.7993 83.1921 49.8471C83.6488 50.2581 83.8962 50.5257 83.9248 50.6213L83.9914 50.8698L84.1531 51.1183C84.2388 51.2521 84.2959 51.5102 84.3339 51.8639C84.3815 52.4565 84.4291 52.6572 84.5242 52.772L84.8477 53.1256L84.8287 53.269L85.0475 53.7469L85.2568 54.0146L85.3996 54.3109L85.5994 54.416L85.7231 54.6645L85.9514 54.7792L86.0466 54.6836C86.0466 54.6836 86.1132 54.6645 86.2178 54.655C86.3606 54.6454 86.5223 54.4351 86.5508 54.2344C86.5794 54.0528 86.5318 53.8521 86.4272 53.6609C86.3796 53.5653 86.2844 53.4984 86.2083 53.4888C86.1703 53.4888 86.1512 53.4984 86.1512 53.5366C86.1512 53.5844 86.1512 53.6513 86.1798 53.7278C86.2083 53.8138 86.2178 53.8712 86.2083 53.919C86.2083 53.9476 86.1798 53.9668 86.1512 53.9668C86.0466 53.9572 85.98 53.8234 85.9704 53.6227L85.9514 53.2403L85.7897 53.3072C85.7897 53.3072 85.7706 53.3072 85.7611 53.3072C85.7326 53.3072 85.7135 53.2881 85.7135 53.269C85.7135 53.2499 85.7611 53.1925 85.8372 53.1161C85.8753 53.0778 85.8943 53.03 85.8943 52.9822C85.9038 52.8962 85.8658 52.8389 85.7897 52.8293H85.7706L85.6184 52.858C85.5708 52.858 85.5423 52.7911 85.5518 52.705C85.5518 52.6668 85.5708 52.619 85.5899 52.5808L85.8658 52.0646L86.0371 51.0705L86.2369 50.5735L86.2844 50.2103C86.2844 50.1242 86.3225 49.9331 86.3606 49.7897L85.8087 49.7228L85.7611 49.7706ZM79.9191 56.9395L79.9 57.1115C79.9 57.1115 79.8429 57.0828 79.8049 57.035C79.7478 56.9586 79.7002 56.8056 79.7193 56.6909C79.7193 56.6336 79.7573 56.6049 79.8239 56.6049C79.9 56.6049 79.9571 56.71 79.9381 56.8152C79.9381 56.8247 79.9381 56.8343 79.9381 56.8534V56.949L80.1189 56.9681L80.0047 56.5858C79.9476 56.4042 79.8429 56.2704 79.7193 56.213H79.7002C79.7002 56.213 79.6241 56.213 79.6051 56.2512L79.529 56.3851L79.4148 56.3564L79.0818 55.7351L78.7107 55.3432L78.6441 55.1425L78.6822 54.9417C78.7107 55.0851 78.7583 55.1425 78.8629 55.152C78.9295 55.152 78.9866 55.1138 78.9961 55.0469L78.9486 54.6645C78.9486 54.6645 78.9866 54.6359 79.0247 54.6359C79.0913 54.6359 79.1484 54.741 79.1484 54.8748V55.152L79.3101 55.4674C79.4338 55.6968 79.5385 55.8307 79.5956 55.8402C79.6241 55.8402 79.6622 55.8211 79.7097 55.7829L79.5099 54.8557L79.4719 54.3778L78.9295 53.1161L78.8249 52.8675C78.8249 52.8675 78.7963 52.8389 78.7678 52.8293C78.7012 52.8293 78.6917 52.8484 78.6631 53.0587C78.6631 53.0874 78.6251 53.1543 78.5585 53.2499C78.5204 53.3072 78.5014 53.3741 78.5109 53.4124L78.7012 54.1484C78.7012 54.1484 78.6822 54.2153 78.6346 54.2631C78.568 54.3204 78.5204 54.4065 78.4823 54.502C78.4253 54.6645 78.3872 54.7601 78.3872 54.7792C78.3872 54.8748 78.3872 55.0373 78.4253 55.2667C78.5014 55.7255 78.5489 55.9932 78.5775 56.0601L78.6822 56.3181C78.9961 56.9872 79.253 57.5034 79.4433 57.8379C79.4624 57.8762 79.4814 57.9144 79.4814 57.9431C79.4814 58.0004 79.4243 58.0482 79.3672 58.0482C79.3387 58.0482 79.3006 58.0196 79.2626 57.9718L79.1293 57.8188L78.9581 57.599L78.901 58.4115C78.882 58.5548 78.8534 58.5931 78.7963 58.66C78.7488 58.7173 78.7012 58.9181 78.7012 58.985L78.587 59.7879L78.4823 60.0077L78.3777 60.5239C78.1969 61.0209 78.0542 61.4033 77.9495 61.6518C77.8829 61.8143 77.8544 61.8908 77.8544 61.9672C77.8544 62.015 77.8544 62.0724 77.8544 62.1584L77.8163 62.5407L77.8639 62.8562L77.8353 63.1047C77.9115 63.3723 77.9305 63.5826 77.8734 63.6877C77.8163 63.7929 77.7973 63.8407 77.7878 63.8694C77.7878 63.9171 77.7973 63.9649 77.8353 63.9745L78.0922 64.0701H78.0161L78.4348 64.2135L78.7297 64.0223V63.7642L78.8915 63.5348L78.9486 63.2863H78.6631C78.6631 63.2863 78.6536 63.3532 78.6536 63.3723C78.6536 63.4679 78.606 63.5635 78.5299 63.6591C78.4443 63.7738 78.3777 63.812 78.3016 63.812C78.254 63.812 78.2159 63.7929 78.1874 63.7642C78.1398 63.726 78.1113 63.6877 78.1208 63.6591C78.1208 63.6591 78.1208 63.6591 78.1208 63.6495L78.3016 63.6113C78.3016 63.6113 78.3872 63.487 78.4348 63.3054C78.4538 63.2481 78.4633 63.1811 78.4728 63.1334C78.4728 63.0951 78.4728 63.0569 78.4728 63.0282C78.4728 62.9422 78.4633 62.8753 78.4728 62.8084C78.4728 62.7128 78.5204 62.665 78.5775 62.665C78.606 62.665 78.6155 62.7032 78.6155 62.7701V63.0473L78.6536 63.3054H78.939V63.1907L78.92 62.6363C78.92 62.4929 78.92 62.3782 78.92 62.3018C78.9295 62.1679 78.9771 62.0246 79.0437 61.8812L78.7392 61.8143C78.7012 61.8716 78.5965 61.9003 78.4633 61.8812C78.3301 61.8716 78.2635 61.8047 78.273 61.7091C78.273 61.6709 78.292 61.6327 78.3111 61.6136C78.3586 61.5466 78.4157 61.5084 78.4443 61.5084C78.4633 61.5084 78.4823 61.5466 78.5204 61.6136C78.5489 61.6805 78.587 61.7283 78.6251 61.7378H78.7392C78.7392 61.7378 78.7583 61.7474 78.7488 61.7665C78.7488 61.7856 78.7392 61.8143 78.7297 61.8238L79.0342 61.8907C79.2245 61.4797 79.6146 61.0209 80.1379 60.629L80.547 60.1893L80.1855 59.9695C79.9857 60.2658 79.9286 60.1415 79.9571 60.0364L80.0903 59.6636L80.176 59.4533V59.4247C80.176 59.3673 80.176 59.2908 80.1569 59.2144C80.1379 59.1475 80.1284 59.0997 80.1284 59.071C80.1284 59.0232 80.2045 58.9945 80.2901 59.0041C80.4138 59.0136 80.4804 59.1092 80.4709 59.2335C80.4614 59.3386 80.4233 59.4629 80.3567 59.5872C80.2616 59.7592 80.2331 59.8739 80.176 59.9599L80.528 60.1798L81.2606 59.396C81.3082 59.3386 81.3273 59.31 81.3748 59.1283C81.4129 58.9945 81.137 59.1666 81.137 59.1666L80.9086 59.31C80.9086 59.31 80.9086 59.31 80.8991 59.31C80.842 59.31 80.8039 59.2335 80.8039 59.1475C80.8039 59.1188 80.823 59.0901 80.842 59.0901L81.0513 59.0519C81.0513 59.0519 81.1179 59.0136 81.1179 58.9659C81.1179 58.8894 80.9086 58.7747 80.6707 58.7269C80.3092 58.66 80.0523 58.421 80.0808 58.1629C80.0808 58.0769 80.1189 58.0291 80.1665 58.0387C80.2331 58.0387 80.2997 58.1056 80.3377 58.1916L80.4709 58.4497L80.7849 58.6122L80.9657 58.7078L81.1465 58.7651C81.1274 58.6791 81.1084 58.6217 81.0989 58.6026C81.0418 58.4784 80.8705 58.2394 80.5851 57.8953C80.3663 57.6277 80.214 57.3409 80.1189 57.0446L80.0808 56.9108H79.9L79.9191 56.9395ZM84.705 67.9126C84.705 67.9126 84.724 67.9699 84.724 67.9986C84.724 68.0846 84.6574 68.1516 84.5432 68.2185L84.391 68.1229C84.391 68.1229 84.3149 68.0464 84.3244 67.9986C84.3244 67.9508 84.4195 67.903 84.5432 67.8744C84.5623 67.8744 84.5813 67.8744 84.6003 67.8744C84.6574 67.8744 84.6955 67.8744 84.7145 67.9222L84.9904 67.9508C84.9904 67.7214 85.019 67.5207 85.0951 67.3964C85.2473 67.1384 85.333 66.9567 85.333 66.8803C85.333 66.8229 85.3044 66.756 85.2378 66.7178L85.0665 66.6126L84.8382 66.3641C84.8382 66.3641 84.8001 66.3354 84.7811 66.3354C84.686 66.3354 84.6574 66.3832 84.6194 66.6222C84.6098 66.67 84.5718 66.756 84.5147 66.8612C84.4576 66.9567 84.4195 67.0428 84.4005 67.1288C84.3434 67.3486 84.2959 67.4825 84.2673 67.5016L84.096 67.6545L84.077 67.8839L83.9914 68.1038V68.1229C83.9914 68.1707 84.0009 68.3045 84.039 68.4861C84.058 68.5913 84.0675 68.6868 84.058 68.7633C84.058 68.8493 84.0294 68.8971 83.9628 68.964L83.7535 69.1743C83.7059 69.2221 83.6774 69.2795 83.6679 69.3177C83.6679 69.3177 83.6679 69.3368 83.6679 69.3464C83.6679 69.3464 83.7155 69.4037 83.8011 69.4897C83.8487 69.5471 83.9153 69.5758 83.9724 69.5853L84.1341 69.6044C84.2102 69.614 84.2483 69.6427 84.2483 69.6905C84.2483 69.7096 84.2388 69.7383 84.2102 69.7765C84.1626 69.8434 84.0865 69.8816 84.0104 69.8721C83.9533 69.8721 83.8867 69.8147 83.8201 69.7383C83.763 69.6714 83.725 69.6427 83.6964 69.6427C83.6584 69.6427 83.6108 69.6522 83.5632 69.6809C83.5156 69.7096 83.4871 69.7574 83.4776 69.8052L83.411 70.1875C83.392 70.2735 83.3824 70.3405 83.3824 70.3978C83.3729 70.5412 83.43 70.6272 83.5632 70.6368C83.5632 70.6368 83.5822 70.6368 83.5918 70.6368C83.5918 70.6368 83.6869 70.5794 83.8487 70.4743L84.6003 69.9868C84.6764 69.939 84.724 69.853 84.7335 69.7574C84.7335 69.6905 84.7335 69.6236 84.6955 69.5662L84.5432 69.2317C84.5432 69.2317 84.5147 69.1265 84.5147 69.0692C84.5337 68.8876 84.6479 68.7346 84.8287 68.6295C84.9048 68.5912 84.9429 68.5626 84.9524 68.553C84.9809 68.5148 84.9999 68.467 85.0095 68.3905C85.0095 68.3045 85.0095 68.2089 85.0095 68.1229C85.0095 68.056 84.9999 67.9795 84.9999 67.9126L84.724 67.8935L84.705 67.9126ZM86.1417 65.7715C86.1417 65.7715 86.2083 65.8575 86.2939 65.8671C86.4367 65.8862 86.5508 65.7524 86.5699 65.5421C86.5699 65.4847 86.5699 65.4178 86.5413 65.37L86.4176 65.1215C86.332 64.9399 86.2559 64.873 86.1512 64.8634C86.1132 64.8634 86.0751 64.8634 86.0656 64.8921L85.9514 65.0355L85.9229 65.1024L85.9704 65.2171C85.9704 65.2171 85.9609 65.3031 85.999 65.3605L86.1132 65.4943L86.1512 65.7811L86.1417 65.7715ZM85.6184 66.2781C85.6184 66.2781 85.5994 66.3546 85.5518 66.4024C85.4757 66.4979 85.4281 66.5744 85.4186 66.6318C85.4186 66.6987 85.4852 66.7656 85.5708 66.7751C85.6945 66.7847 85.8277 66.7369 85.9134 66.6222L86.0656 66.4406C86.1893 66.2972 86.2273 66.2303 86.2369 66.173C86.2369 66.1156 86.2273 66.0774 86.1988 66.0678L86.0371 66.0105C86.0371 66.0105 85.98 65.9244 85.98 65.8288C85.98 65.6568 85.9324 65.523 85.8658 65.5134C85.7326 65.5039 85.6279 65.4943 85.6279 65.5134L85.685 65.8097L85.5899 66.0869V66.2877L85.6184 66.2781ZM85.9038 64.1083C85.9038 64.1083 85.8753 64.137 85.8372 64.137C85.7897 64.137 85.7706 64.0892 85.7802 64.0032C85.7802 63.9458 85.7992 63.898 85.8182 63.8407C85.8468 63.7642 85.8658 63.6877 85.8753 63.6113C85.8848 63.5061 85.8753 63.3819 85.8277 63.1047L85.6469 62.9709C85.5803 62.9231 85.5613 62.7797 85.5899 62.5981C85.6089 62.4643 85.6089 62.3591 85.5803 62.3018L85.3996 61.9863C85.352 61.9099 85.333 61.8047 85.3425 61.6996C85.3615 61.4511 85.333 61.3555 85.2188 61.3459C85.1712 61.3459 85.0856 61.4128 84.9904 61.5275C84.8572 61.6996 84.7811 61.8525 84.7716 61.9768C84.7526 62.2062 84.8287 62.4547 85.0856 62.99C85.2283 63.2767 85.2949 63.5157 85.2759 63.6495L85.1998 64.2039L85.2283 64.9399C85.2283 65.1215 85.3044 65.2267 85.4567 65.2362C85.5233 65.2362 85.5803 65.2267 85.6089 65.1884L85.8658 64.8539L86.018 64.6723C86.1512 64.5193 86.2178 64.2995 86.2083 64.0701C86.2083 63.9841 86.2083 63.9171 86.2369 63.8885L86.4176 63.6208L86.4462 63.3723L85.9038 60.9349L85.7802 60.0555C85.7802 60.0077 85.7326 59.9599 85.6755 59.9599C85.6279 59.9599 85.5899 60.0268 85.5708 60.132V60.1798C85.5708 60.3423 85.5708 60.4474 85.5328 60.4761L85.2188 60.7533C85.2188 60.7533 85.1902 60.8393 85.1522 60.9731V61.0114C85.1331 61.1356 85.1712 61.2121 85.2568 61.2121C85.2949 61.2121 85.3234 61.2121 85.3425 61.1834L85.3996 61.0783C85.3996 61.0783 85.4471 61.04 85.4947 61.04C85.5137 61.04 85.5328 61.0496 85.5423 61.0592L85.5613 61.2694L85.7516 61.7187V61.9863L85.8658 62.3878L85.8087 62.7128L85.8658 62.8753L86.0656 63.076L86.1417 63.3723L86.0846 63.64L85.9514 63.9076L85.8943 64.0892L85.9038 64.1083ZM78.0447 64.2613L77.8734 64.2421C77.8734 64.2421 77.8639 64.3377 77.8924 64.4237L77.959 64.6914L77.9781 64.8443L78.1208 65.3987L78.1969 65.9244C78.3016 66.3737 78.3491 66.7178 78.3206 66.9567C78.2825 67.32 78.3396 67.5016 78.4823 67.5111C78.5109 67.5111 78.5585 67.5111 78.6155 67.492L78.8629 67.4347H78.882C78.9676 67.4347 79.0342 67.5398 79.0342 67.6545V67.9126L79.3006 68.1324L79.6146 68.3427C79.6717 68.381 79.7383 68.4001 79.8144 68.4096C79.9571 68.4288 80.0903 68.3523 80.1284 68.2471L80.1855 68.0846L80.509 67.5972C80.509 67.5972 80.547 67.5207 80.547 67.492C80.5566 67.3869 80.4614 67.3009 80.3282 67.2913C80.2235 67.2817 80.1189 67.3295 80.0428 67.4156C79.9286 67.5398 79.9191 67.5494 79.8429 67.5398C79.7573 67.5398 79.6907 67.492 79.6431 67.4251L79.5194 67.2148L79.3387 67.0619C79.3387 67.0619 79.3006 66.9759 79.3101 66.8898C79.3101 66.7847 79.3101 66.6987 79.2626 66.6413C79.2435 66.6126 79.1769 66.5457 79.0723 66.4501C78.9771 66.3641 78.9486 66.3163 78.92 66.173L78.8439 66.0009L78.8154 65.6855L78.6822 64.7679V64.6149L78.5204 64.462L78.292 64.4237L78.0351 64.2804L78.0447 64.2613ZM80.3472 68.0942C80.2806 68.1994 80.2235 68.2854 80.1855 68.3332C80.1189 68.4096 80.0808 68.4861 80.0808 68.5339C80.0713 68.6486 80.1474 68.7346 80.3663 68.8398C80.4995 68.9067 80.6612 68.964 80.7373 68.964C80.9276 68.9831 80.9942 68.8876 81.0228 68.5435C81.0608 68.142 80.9371 67.7883 80.7373 67.7692C80.6707 67.7692 80.6232 67.7883 80.5375 67.8839L80.4804 67.9508L80.3472 68.0942ZM83.8962 51.2617C83.8391 51.1757 83.8011 51.1279 83.7916 51.1183C83.7916 51.1183 83.7821 51.1183 83.7725 51.1183C83.7059 51.1183 83.6584 51.1757 83.6488 51.2808C83.6393 51.4146 83.6679 51.558 83.744 51.6632L83.8677 51.8065L83.9438 51.8926C83.9438 51.8926 83.9724 51.9212 84.0009 51.9212C84.058 51.9212 84.096 51.9021 84.096 51.8543C84.096 51.6632 84.096 51.5485 84.096 51.5389L83.9057 51.2617H83.8962ZM84.2768 53.3646C84.2768 53.3646 84.2197 53.4219 84.2102 53.508C84.2102 53.5749 84.2388 53.6513 84.3054 53.6896C84.3625 53.7278 84.41 53.766 84.4005 53.7756L84.372 53.8712C84.372 53.9285 84.4766 54.0528 84.5718 54.2057C84.7335 54.4638 84.9333 54.6263 85.1236 54.7792C85.1427 54.7983 85.1807 54.7983 85.2093 54.7983C85.3234 54.8079 85.4091 54.7601 85.4186 54.6836C85.4281 54.5498 85.3425 54.4542 85.0285 54.244C84.8001 54.091 84.6289 53.7852 84.5718 53.4124C84.5242 53.0969 84.4005 52.8867 84.2578 52.8771C84.1817 52.8771 84.1341 52.8962 84.1341 52.9536C84.1341 53.0014 84.1341 53.0587 84.1626 53.1161L84.2578 53.3455L84.2768 53.3646ZM86.1512 57.4747C86.1512 57.4747 86.1322 57.5225 86.1227 57.5416C86.1227 57.5799 86.1703 57.6085 86.2559 57.6181C86.4652 57.6372 86.6841 57.5034 86.7031 57.3313V57.3027L86.5508 57.0828C86.5508 57.0828 86.4842 57.0159 86.4367 57.0064C86.3891 57.0064 86.351 57.0446 86.3225 57.1019L86.2654 57.2644L86.1417 57.4747H86.1512ZM86.0085 57.9527C86.018 58.0196 86.0846 58.0578 86.1893 58.0769C86.4367 58.1056 86.5508 58.0578 86.5604 57.9335C86.5604 57.8379 86.5128 57.7615 86.4176 57.7519C86.1607 57.7232 86.018 57.7902 86.0085 57.9335C86.0085 57.9431 86.0085 57.9527 86.0085 57.9622M75.2473 46.9795C75.2473 46.9795 75.333 46.817 75.371 46.7597C75.4186 46.7023 75.5233 46.6641 75.6184 46.6832C75.7326 46.7023 75.8468 46.5494 75.8468 46.5494C75.8753 46.5303 75.9134 46.492 75.9514 46.492C75.98 46.492 75.999 46.5303 75.999 46.5494C75.9609 46.8935 75.8277 47.1324 75.685 47.1133C75.685 47.1133 75.666 47.1133 75.6565 47.1133L75.5042 47.0177C75.4471 47.0177 75.39 47.056 75.3805 47.1133C75.3805 47.1898 75.4471 47.3045 75.5803 47.4192C75.6279 47.4574 75.6945 47.4861 75.7516 47.4957C75.8468 47.5052 75.9134 47.4574 75.98 47.3427L76.2273 46.8648C76.2559 46.8075 76.313 46.7788 76.3606 46.7788C76.3891 46.7788 76.4081 46.8266 76.4081 46.8744C76.4081 46.9508 76.3796 47.0177 76.3415 47.0846L76.0466 47.5912C76.0466 47.6582 76.0656 47.7155 76.1132 47.7251C76.1132 47.7251 76.1988 47.6486 76.3225 47.5243L76.7126 47.1229L76.8173 46.9317L76.9219 46.7501C76.9695 46.6641 76.998 46.578 77.0076 46.4825C77.0266 46.2722 77.0076 46.0332 76.9314 45.7751C76.8648 45.5266 76.7411 45.2972 76.5794 45.0965C76.4747 44.9722 76.3796 44.9053 76.313 44.8958C76.3035 44.8958 76.2939 44.8958 76.2749 44.8958L76.1037 45.1443L75.7992 45.431L75.5423 45.7656L75.3044 45.9185C75.2473 45.9567 75.1998 46.081 75.1807 46.2435C75.1617 46.3869 75.1331 46.492 75.0951 46.5589C75.019 46.6832 74.9809 46.7883 74.9714 46.8648C74.9619 46.9699 75.0095 47.0177 75.1236 47.0273C75.1522 47.0273 75.1998 47.0082 75.2188 46.9986M77.2549 46.578C77.2549 46.578 77.2549 46.8075 77.2549 46.8744C77.2645 46.9413 77.1312 47.1038 76.998 47.1516C76.8458 47.2089 76.627 47.5052 76.627 47.5052L76.4557 47.5817C76.4557 47.5817 76.3891 47.6486 76.3796 47.6964C76.3796 47.7155 76.3796 47.7251 76.3796 47.7442C76.4176 47.8493 76.5413 47.9162 76.6555 47.9258C76.6936 47.9258 76.7411 47.9258 76.7697 47.9067C76.8173 47.8876 76.8458 47.878 76.8553 47.878C76.9124 47.878 76.9885 47.8971 77.0171 48.0692L78.1969 52.3705C78.2159 52.4278 78.2635 52.4756 78.3111 52.4756C78.4062 52.4756 78.4823 52.4087 78.4919 52.2558C78.5109 52.0646 78.4253 51.7014 78.2159 51.1374C77.6831 49.675 77.3691 48.4324 77.274 47.4192C77.274 47.4001 77.274 47.381 77.274 47.3618C77.274 47.3045 77.2835 47.1038 77.6926 46.8075L77.7212 46.7883L77.6926 46.5972C77.6926 46.5972 77.626 46.6545 77.5975 46.6545C77.4738 46.645 77.3691 46.406 77.3501 46.1001C77.3406 45.7943 77.2645 45.5075 77.1503 45.2685C76.998 44.9435 76.6745 44.609 76.4938 44.5899C76.4176 44.5899 76.3606 44.6281 76.351 44.7141C76.351 44.7619 76.3891 44.7906 76.5033 44.848C76.5794 44.8862 76.7411 45.0965 76.9695 45.4501C77.0551 45.5935 77.1122 45.7369 77.1122 45.8707V46.1575L77.2359 46.5589L77.2549 46.578ZM86.8839 54.4925C86.8839 54.4925 86.8648 54.4734 86.8553 54.4734C86.8173 54.4734 86.7792 54.4734 86.7316 54.4925C86.5889 54.5498 86.4652 54.6932 86.4462 54.8366C86.4272 54.9704 86.5318 55.1998 86.8268 55.6491C86.9505 55.8402 87.0266 56.1174 86.998 56.3086C86.998 56.3851 86.9695 56.4137 86.9314 56.4042C86.8173 56.3851 86.665 56.127 86.627 55.8498C86.5413 55.3527 86.332 55.0086 86.0846 54.98C86.0275 54.98 85.98 54.98 85.9514 54.9895C85.8372 55.0182 85.7516 55.0564 85.7516 55.0947C85.7421 55.1807 85.8753 55.3814 86.1227 55.6491C86.2939 55.8307 86.4747 56.213 86.6745 56.777L86.9314 57.513L87.0456 57.685L87.1883 57.6659L87.5975 57.6372C87.7497 57.6277 87.8449 57.5321 87.8639 57.3505C87.8829 57.1784 87.8639 56.9968 87.7973 56.8439L87.1788 55.4005L86.8839 54.4829V54.4925ZM88.6536 67.9986C88.6536 67.9986 88.5775 67.9604 88.5394 67.9508C88.4253 67.9317 88.4062 67.9508 88.3967 68.0369V68.0655V68.1898C88.3967 68.2376 88.3682 68.3332 88.3206 68.4765C88.3111 68.5148 88.3016 68.5435 88.3016 68.5721C88.292 68.6773 88.3396 68.7442 88.4348 68.7537C88.4919 68.7537 88.5585 68.7537 88.7488 68.6868C89.1389 68.5626 89.234 68.4957 89.2625 68.2949C89.2816 68.1324 89.2625 68.1038 89.1484 68.0942C89.1103 68.0942 89.0723 68.0942 89.0342 68.0942C88.901 68.1133 88.8154 68.1038 88.7868 68.0846L88.6726 67.9986H88.6536ZM88.882 54.5689C88.8724 54.4447 88.8058 54.3395 88.7202 54.33C88.6631 54.33 88.606 54.416 88.587 54.5212C88.5775 54.5976 88.6251 54.8366 88.6822 55.1233C88.7392 55.4101 88.7202 55.6491 88.6822 55.974C88.6536 56.2034 88.568 56.3659 88.5299 56.4806L88.4062 56.6527L88.2825 56.8821L88.1113 57.035C88.1113 57.035 88.1113 57.0446 88.1018 57.0542C88.1018 57.0828 88.1113 57.1211 88.1398 57.1689C88.1588 57.1975 88.1874 57.2166 88.2159 57.2166H88.235C88.235 57.2166 88.3206 57.188 88.4062 57.1306C88.5489 57.035 88.6536 56.9012 88.6917 56.7483L88.8344 56.1652L88.9486 55.8976L89.0437 55.4866L89.0152 55.2476L88.9961 54.9513L88.901 54.7314L88.882 54.5498V54.5689ZM87.1217 52.5521L87.4262 52.3705C87.5118 52.3227 87.5975 52.1315 87.6165 51.9499C87.6355 51.797 87.6165 51.6154 87.5594 51.4146L87.3501 50.7073C87.2549 50.3728 87.0837 50.1338 86.8934 50.0478H86.8648C86.8648 50.0478 86.8077 50.0478 86.8077 50.0573C86.8077 50.0669 86.8173 50.0956 86.8553 50.1338C86.9505 50.2676 87.0171 50.4397 87.0456 50.6308L87.1217 51.1088C87.1408 51.2617 87.1503 51.3573 87.1503 51.3955L87.1312 51.6632L87.1978 51.8735C87.1978 51.8735 87.1978 51.9021 87.1978 51.9212C87.1883 51.9977 87.1598 52.0742 87.0171 52.3992L87.1217 52.5425V52.5521ZM86.7316 52.2271C86.8743 52.0933 86.96 51.969 86.9695 51.8735C86.9695 51.8448 86.9695 51.8065 86.9695 51.7587C86.9695 51.4338 86.9505 51.0992 86.9029 51.0132L86.7221 50.6595L86.6745 50.4301L86.5128 50.2103L86.4176 49.9809C86.4176 49.9809 86.3986 49.9522 86.3701 49.9522C86.3225 49.9522 86.2939 49.9618 86.2844 49.9904C86.2844 50.0095 86.2939 50.0669 86.332 50.172L86.4081 50.4014C86.4272 50.4684 86.4367 50.5161 86.4367 50.5257L86.2844 50.8029L86.2464 51.472L86.1512 51.711C86.1512 51.711 86.1798 51.8161 86.2654 51.8926C86.3701 51.9882 86.4081 52.0455 86.5223 52.2749L86.7221 52.2176L86.7316 52.2271ZM90.6707 51.2235C90.7088 51.2808 90.7659 51.3191 90.8325 51.3286C90.9181 51.3382 90.9752 51.3286 90.9847 51.2808C90.9847 51.2521 90.9752 51.2044 90.9467 51.147L90.823 50.8985L90.7659 50.7073C90.7659 50.7073 90.6993 50.6404 90.6327 50.6308C90.528 50.6213 90.4233 50.6882 90.4138 50.7742C90.4138 50.8316 90.4138 50.8889 90.4519 50.9272L90.5851 51.0705L90.6802 51.2235H90.6707ZM90.0523 51.3191C90.1284 51.3955 90.2235 51.4529 90.2901 51.4624C90.4614 51.4816 90.5375 51.4624 90.547 51.3573C90.547 51.3382 90.547 51.3095 90.547 51.2904C90.49 51.1183 90.2901 50.9463 90.1379 50.9272C90.0047 50.908 89.9 50.9845 89.881 51.1088C89.881 51.1279 89.881 51.1374 89.8905 51.1566L90.0523 51.3191ZM88.0161 30.5293C87.9781 30.6154 87.959 30.6345 87.8829 30.7492V30.7683C85.4567 33.2248 84.2292 34.1807 80.8135 36.9527L80.7183 37.0387C80.7183 37.0387 80.6232 37.1151 80.6232 37.1916V37.2203C80.6232 37.2681 80.6327 37.3159 80.6707 37.3541C80.7183 37.4019 80.7944 37.421 80.8325 37.421C80.9276 37.421 81.0323 37.3254 81.194 37.1916C81.3177 37.096 81.47 36.9622 81.47 36.9622C81.47 36.9622 86.1322 33.2344 88.0542 31.1411L88.1588 31.0646L88.2635 31.0455L88.3301 30.9882H88.3682C88.3682 30.9882 88.4823 31.0837 88.5394 31.208C88.7012 31.5425 88.7392 31.6095 88.8154 31.7433C89.0152 32.0491 89.1389 31.9727 89.1674 31.9631C89.215 31.944 89.2721 31.9153 89.3292 31.8675C89.3958 31.8102 89.3767 31.8293 89.3862 31.8102C89.4624 31.7146 89.3958 31.6381 89.3387 31.5139L89.2816 31.3896L88.1779 29.1816C88.0732 28.9522 88.0066 29.0095 88.0066 29.0095L87.8734 29.0765C87.7402 29.1147 87.5594 29.1816 87.626 29.3632C87.6546 29.4397 87.6736 29.5066 87.7307 29.65L88.0637 30.3382C88.1018 30.4242 88.0827 30.4529 88.0161 30.5007V30.5198V30.5293ZM82.2597 42.8598C82.4119 43.3473 82.5356 43.5193 82.7069 43.548C82.7259 43.548 82.7545 43.548 82.7735 43.548L83.0209 43.4429L83.3824 43.376L83.9248 43.0988L84.3815 42.812L84.5337 42.6686L85.0856 42.4679C85.2093 42.4201 85.2949 42.2863 85.3234 42.1047C85.352 41.8657 85.3044 41.579 85.1617 41.2253C85.0951 41.0532 84.9714 40.9194 84.8763 40.9099C84.8382 40.9099 84.8001 40.9099 84.7716 40.929L84.6003 41.0246L84.1912 41.1775C84.0199 41.2444 83.8582 41.4165 83.8391 41.5503C83.8391 41.5694 83.8391 41.5885 83.8487 41.5981L83.9628 41.7223C83.9628 41.7223 83.9628 41.7415 83.9628 41.751C83.9628 41.8179 83.8962 41.8753 83.8296 41.8848L83.7155 41.9039L83.5061 41.99L83.0875 42.2481L82.4024 42.7164L82.3644 42.8024L82.3168 42.8598L82.2502 42.8885L82.2597 42.8598ZM86.6555 54.1484C86.6555 54.1484 86.6936 54.2057 86.7221 54.2057C86.7792 54.2057 86.8553 54.0528 86.8839 53.8521C86.9314 53.4506 86.8268 53.0587 86.5889 52.7911C86.5318 52.7242 86.4938 52.6668 86.4747 52.6381L86.351 52.3418C86.3035 52.2271 86.1988 52.1315 86.1227 52.122C86.018 52.1124 85.98 52.1602 85.9609 52.3514C85.9419 52.5234 85.9419 52.6477 85.9704 52.6764L86.0656 52.7911L86.1988 52.944L86.3225 53.2116L86.4842 53.4984L86.646 54.1484H86.6555ZM87.0932 53.1065C87.0742 53.0014 87.0742 53.0014 87.0361 52.9918C86.96 52.9918 86.9029 53.0491 86.8934 53.1256C86.8934 53.1734 86.9219 53.3168 86.9505 53.4124C86.979 53.4888 86.998 53.5175 87.0361 53.5271C87.0932 53.5271 87.1312 53.4888 87.1312 53.4219C87.1312 53.4124 87.1312 53.4028 87.1312 53.3837L87.0837 53.1065H87.0932ZM87.0932 54.1484C87.0932 54.1484 87.1598 54.1293 87.1978 54.091C87.2264 54.0623 87.2454 54.0241 87.2454 53.9763V53.9572C87.2454 53.8903 87.2264 53.8138 87.1788 53.7374C87.1312 53.6704 87.1027 53.6322 87.0932 53.6322C87.0361 53.6322 86.998 53.6991 86.979 53.7947C86.9695 53.8807 86.979 53.9572 87.0266 54.0241L87.0932 54.1388V54.1484ZM80.6136 41.6076L80.6517 41.5694L80.4804 41.3496L80.3092 41.0246C80.3092 41.0246 80.2711 40.9768 80.2521 40.9768C80.2235 40.9768 80.195 41.0055 80.195 41.0437L80.176 41.34C80.1569 41.6172 80.176 41.6459 80.3377 41.665C80.3567 41.665 80.3853 41.665 80.4043 41.665L80.6232 41.6076H80.6136ZM76.998 40.7474C76.979 40.6231 76.8839 40.5275 76.7507 40.518C76.7126 40.518 76.6936 40.5371 76.6841 40.5753C76.665 40.7187 76.7697 40.8525 76.9124 40.8716C76.9505 40.8716 76.979 40.8525 76.9885 40.7952C76.9885 40.7856 76.9885 40.7665 76.9885 40.7569M76.6175 41.101V41.0724C76.6175 41.0724 76.6365 41.015 76.646 41.0055C76.646 41.0055 76.7126 41.0055 76.8077 41.015C76.9029 41.0246 76.9695 41.0915 76.96 41.1679C76.96 41.2253 76.8743 41.2635 76.7887 41.254C76.627 41.2349 76.6175 41.2253 76.6175 41.101Z" fill="#00295C"/>
</g>
</g>
<defs>
<clipPath id="clip0_250_329">
<rect width="110" height="42" fill="white" transform="translate(75 29)"/>
</clipPath>
</defs>
</svg>
