<svg width="260" height="100" viewBox="0 0 260 100" fill="none" xmlns="http://www.w3.org/2000/svg">
<rect width="260" height="100" fill="white"/>
<g clip-path="url(#clip0_250_317)">
<path d="M30.0051 45.6627H25.8633V55.844H24.1419V45.6627H20V44.1542H30.0051V45.6627Z" fill="#00285E"/>
<path d="M42.7313 44C46.6796 44 49.1734 46.7417 49.1734 49.9991C49.1734 53.2565 46.751 55.9982 42.6956 55.9982C38.6402 55.9982 36.3062 53.1702 36.3062 49.9991C36.3062 46.828 38.8525 44 42.7313 44ZM42.7313 54.4548C45.4168 54.4548 47.3994 52.5518 47.3994 49.9991C47.3994 47.4464 45.4149 45.5415 42.7313 45.5415C40.0477 45.5415 38.0802 47.428 38.0802 49.9991C38.0802 52.5701 40.0628 54.4548 42.7313 54.4548Z" fill="#00285E"/>
<path d="M68.4093 55.8459H66.6898V46.7436H66.6541L62.9689 51.269H62.687L59.0018 46.7436H58.9661V55.8459H57.2466V44.1542H58.8609L62.828 48.9549L66.812 44.1542H68.4093V55.8459Z" fill="#00285E"/>
<path d="M89.2974 55.8459H87.5779V46.7436H87.5422L83.857 51.269H83.5751L79.888 46.7436H79.8542V55.8459H78.1328V44.1542H79.749L83.7161 48.9549L87.7001 44.1542H89.2974V55.8459Z" fill="#00285E"/>
<path d="M105.288 44.1542H107.359L102.918 49.6743V55.8459H101.197V49.6578L96.7578 44.1542H98.8287L102.039 48.1841L105.288 44.1542Z" fill="#00285E"/>
<path d="M153.895 55.8459H152.175V50.7552H145.472V55.8459H143.75V44.1542H145.472V49.2449H152.175V44.1542H153.895V55.8459Z" fill="#00285E"/>
<path d="M162.741 44.1542H161.023V55.844H162.741V44.1542Z" fill="#00285E"/>
<path d="M171.518 54.3374H176.925V55.8459H169.797V44.156H171.518V54.3374Z" fill="#00285E"/>
<path d="M188.253 45.6627H183.583V48.9035H188.253V50.412H183.583V55.844H181.864V44.1542H188.253V45.6627Z" fill="#00285E"/>
<path d="M195.994 44.1542H194.274V55.844H195.994V44.1542Z" fill="#00285E"/>
<path d="M212.369 55.0384C210.774 55.7247 209.475 55.9982 207.809 55.9982C204.138 55.9982 201.434 53.495 201.434 50.0688C201.434 46.6426 204.208 44 207.859 44C209.263 44 210.246 44.2257 212.123 44.9946V46.6922C210.719 45.9397 209.263 45.5434 207.824 45.5434C205.226 45.5434 203.204 47.4813 203.204 50.0174C203.204 52.5536 205.208 54.4566 208.049 54.4566C208.979 54.4566 209.823 54.2511 210.648 53.9942V51.5938H208.346V50.0872H212.366V55.0402L212.369 55.0384Z" fill="#00285E"/>
<path d="M225.709 45.6627H220.636V49.1953H225.534V50.702H220.636V54.3374H225.868V55.844H218.915V44.1542H225.709V45.6627Z" fill="#00285E"/>
<path d="M234.767 44.1542C237.189 44.1542 238.7 45.4057 238.7 47.4281C238.7 48.7824 237.98 49.7936 236.698 50.2891C237.785 50.9919 238.454 52.0728 239.365 53.5281C239.874 54.3337 240.173 54.7283 241 55.8422H238.944L237.364 53.4418C235.785 51.0433 235.065 50.768 234.188 50.768H233.47V55.8422H231.749V44.1542H234.767ZM233.468 49.2614H234.573C236.417 49.2614 236.943 48.3365 236.926 47.3583C236.905 46.2609 236.242 45.5929 234.573 45.5929H233.468V49.2595V49.2614Z" fill="#00285E"/>
<path d="M134.009 47.0592H124.802V52.9243H134.009V47.0592Z" fill="#E31937"/>
<path d="M124.8 47.0757H115.596V52.9224H124.8V47.0757Z" fill="white"/>
<path d="M134.007 44.156H115.594V47.0665H134.007V44.156Z" fill="#00285E"/>
<path d="M134.007 52.906H115.594V55.8312H134.007V52.906Z" fill="#00285E"/>
</g>
<defs>
<clipPath id="clip0_250_317">
<rect width="221" height="12" fill="white" transform="translate(20 44)"/>
</clipPath>
</defs>
</svg>
